<svg width="434" height="425" viewBox="0 0 434 425" fill="none" xmlns="http://www.w3.org/2000/svg">
<path d="M3 362.165V65.4922L9.47287 73.0439V355.692L3 362.165Z" fill="url(#paint0_linear_3074_839)"/>
<path d="M432.367 362.165V65.4922L425.894 73.0439V355.692L432.367 362.165Z" fill="url(#paint1_linear_3074_839)"/>
<path d="M430.21 26.655V54.7041L416.185 64.4134V361.087L428.052 372.953V398.845L405.397 421.5H278.097L272.703 416.106H159.428L154.034 421.5H28.8918L5.15791 397.766V375.111L17.0248 363.244V65.4922L4.0791 52.5465V26.655L26.7341 4H155.113L160.507 9.39406H271.624L275.94 4H406.476L430.21 26.655Z" stroke="url(#paint2_linear_3074_839)" stroke-width="6.47287"/>
<path d="M144.793 315.5V297.622H155.582V299.542H146.958V305.583H155.024V307.504H146.958V313.579H155.722V315.5H144.793ZM159.205 315.5V302.091H161.196V304.186H161.37C161.65 303.471 162.101 302.915 162.723 302.519C163.346 302.117 164.094 301.917 164.967 301.917C165.851 301.917 166.588 302.117 167.175 302.519C167.769 302.915 168.232 303.471 168.563 304.186H168.703C169.046 303.494 169.561 302.944 170.248 302.536C170.935 302.123 171.758 301.917 172.719 301.917C173.918 301.917 174.898 302.292 175.661 303.043C176.423 303.788 176.804 304.949 176.804 306.526V315.5H174.744V306.526C174.744 305.537 174.473 304.829 173.932 304.405C173.391 303.98 172.754 303.767 172.02 303.767C171.078 303.767 170.347 304.053 169.829 304.623C169.311 305.187 169.052 305.903 169.052 306.77V315.5H166.957V306.316C166.957 305.554 166.71 304.94 166.215 304.474C165.72 304.003 165.083 303.767 164.303 303.767C163.768 303.767 163.267 303.91 162.802 304.195C162.342 304.48 161.97 304.876 161.684 305.382C161.405 305.883 161.265 306.462 161.265 307.12V315.5H159.205ZM180.571 320.528V302.091H182.561V304.221H182.806C182.957 303.989 183.167 303.692 183.434 303.331C183.708 302.964 184.098 302.638 184.604 302.353C185.116 302.062 185.809 301.917 186.682 301.917C187.811 301.917 188.806 302.199 189.667 302.763C190.529 303.328 191.201 304.128 191.684 305.164C192.167 306.2 192.408 307.422 192.408 308.831C192.408 310.251 192.167 311.481 191.684 312.523C191.201 313.559 190.532 314.362 189.676 314.933C188.821 315.497 187.834 315.779 186.717 315.779C185.855 315.779 185.166 315.637 184.648 315.352C184.13 315.061 183.731 314.732 183.452 314.365C183.172 313.993 182.957 313.684 182.806 313.44H182.631V320.528H180.571ZM182.596 308.796C182.596 309.808 182.745 310.702 183.041 311.476C183.338 312.244 183.772 312.846 184.342 313.283C184.913 313.713 185.611 313.929 186.437 313.929C187.299 313.929 188.017 313.702 188.594 313.248C189.176 312.788 189.612 312.171 189.903 311.397C190.2 310.617 190.348 309.75 190.348 308.796C190.348 307.853 190.203 307.003 189.912 306.247C189.627 305.484 189.193 304.882 188.611 304.44C188.035 303.991 187.31 303.767 186.437 303.767C185.599 303.767 184.895 303.98 184.325 304.405C183.754 304.824 183.324 305.411 183.033 306.168C182.742 306.919 182.596 307.795 182.596 308.796ZM200.998 315.779C199.788 315.779 198.726 315.491 197.812 314.915C196.904 314.339 196.194 313.533 195.682 312.497C195.176 311.461 194.923 310.251 194.923 308.865C194.923 307.469 195.176 306.249 195.682 305.208C196.194 304.166 196.904 303.357 197.812 302.781C198.726 302.205 199.788 301.917 200.998 301.917C202.209 301.917 203.268 302.205 204.176 302.781C205.09 303.357 205.8 304.166 206.306 305.208C206.818 306.249 207.074 307.469 207.074 308.865C207.074 310.251 206.818 311.461 206.306 312.497C205.8 313.533 205.09 314.339 204.176 314.915C203.268 315.491 202.209 315.779 200.998 315.779ZM200.998 313.929C201.918 313.929 202.674 313.693 203.268 313.222C203.862 312.75 204.301 312.13 204.586 311.362C204.871 310.594 205.014 309.762 205.014 308.865C205.014 307.969 204.871 307.134 204.586 306.36C204.301 305.586 203.862 304.96 203.268 304.483C202.674 304.006 201.918 303.767 200.998 303.767C200.079 303.767 199.322 304.006 198.729 304.483C198.135 304.96 197.696 305.586 197.41 306.36C197.125 307.134 196.983 307.969 196.983 308.865C196.983 309.762 197.125 310.594 197.41 311.362C197.696 312.13 198.135 312.75 198.729 313.222C199.322 313.693 200.079 313.929 200.998 313.929ZM212.801 315.5L208.715 302.091H210.88L213.779 312.357H213.918L216.782 302.091H218.981L221.81 312.322H221.949L224.848 302.091H227.013L222.927 315.5H220.902L217.969 305.199H217.759L214.826 315.5H212.801ZM234.902 315.779C233.61 315.779 232.496 315.494 231.559 314.924C230.627 314.348 229.909 313.545 229.402 312.514C228.902 311.479 228.652 310.274 228.652 308.9C228.652 307.527 228.902 306.316 229.402 305.269C229.909 304.215 230.613 303.395 231.515 302.807C232.423 302.213 233.482 301.917 234.693 301.917C235.391 301.917 236.081 302.033 236.761 302.266C237.442 302.499 238.062 302.877 238.621 303.401C239.18 303.919 239.625 304.605 239.957 305.461C240.288 306.316 240.454 307.37 240.454 308.621V309.494H230.118V307.713H238.359C238.359 306.957 238.208 306.282 237.905 305.688C237.608 305.094 237.183 304.626 236.631 304.282C236.083 303.939 235.437 303.767 234.693 303.767C233.872 303.767 233.162 303.971 232.563 304.378C231.969 304.78 231.512 305.304 231.192 305.95C230.872 306.596 230.712 307.288 230.712 308.027V309.215C230.712 310.227 230.886 311.086 231.236 311.79C231.591 312.488 232.082 313.021 232.711 313.387C233.339 313.748 234.07 313.929 234.902 313.929C235.443 313.929 235.932 313.853 236.369 313.702C236.811 313.545 237.192 313.312 237.512 313.003C237.832 312.689 238.08 312.299 238.254 311.834L240.245 312.392C240.035 313.067 239.683 313.661 239.188 314.173C238.694 314.679 238.083 315.075 237.355 315.36C236.628 315.64 235.81 315.779 234.902 315.779ZM243.588 315.5V302.091H245.578V304.117H245.718C245.963 303.453 246.405 302.915 247.045 302.502C247.685 302.088 248.407 301.882 249.21 301.882C249.361 301.882 249.55 301.885 249.777 301.89C250.004 301.896 250.176 301.905 250.292 301.917V304.012C250.223 303.994 250.063 303.968 249.812 303.933C249.568 303.892 249.309 303.872 249.035 303.872C248.384 303.872 247.802 304.009 247.289 304.282C246.783 304.55 246.382 304.923 246.085 305.4C245.794 305.871 245.648 306.41 245.648 307.015V315.5H243.588ZM252.735 315.5V302.091H254.795V315.5H252.735ZM253.782 299.856C253.381 299.856 253.034 299.72 252.743 299.446C252.458 299.173 252.316 298.844 252.316 298.46C252.316 298.076 252.458 297.747 252.743 297.473C253.034 297.2 253.381 297.063 253.782 297.063C254.184 297.063 254.527 297.2 254.812 297.473C255.103 297.747 255.249 298.076 255.249 298.46C255.249 298.844 255.103 299.173 254.812 299.446C254.527 299.72 254.184 299.856 253.782 299.856ZM260.628 307.434V315.5H258.568V302.091H260.558V304.186H260.733C261.047 303.505 261.525 302.958 262.165 302.545C262.805 302.126 263.631 301.917 264.644 301.917C265.552 301.917 266.346 302.103 267.027 302.475C267.708 302.842 268.238 303.401 268.616 304.151C268.994 304.896 269.183 305.839 269.183 306.98V315.5H267.123V307.12C267.123 306.066 266.85 305.246 266.303 304.658C265.756 304.064 265.005 303.767 264.05 303.767C263.393 303.767 262.805 303.91 262.287 304.195C261.775 304.48 261.37 304.896 261.074 305.443C260.777 305.991 260.628 306.654 260.628 307.434ZM278.36 320.808C277.365 320.808 276.51 320.68 275.794 320.424C275.078 320.173 274.482 319.842 274.004 319.428C273.533 319.021 273.158 318.584 272.878 318.119L274.519 316.967C274.706 317.211 274.941 317.49 275.226 317.805C275.512 318.125 275.902 318.401 276.396 318.634C276.897 318.873 277.551 318.992 278.36 318.992C279.443 318.992 280.336 318.73 281.04 318.206C281.745 317.682 282.097 316.862 282.097 315.744V313.021H281.922C281.771 313.265 281.555 313.568 281.276 313.929C281.003 314.284 280.607 314.601 280.089 314.88C279.577 315.154 278.884 315.29 278.011 315.29C276.929 315.29 275.957 315.034 275.095 314.522C274.24 314.01 273.562 313.265 273.061 312.287C272.567 311.31 272.319 310.123 272.319 308.726C272.319 307.352 272.561 306.156 273.044 305.138C273.527 304.114 274.199 303.322 275.061 302.763C275.922 302.199 276.917 301.917 278.046 301.917C278.919 301.917 279.612 302.062 280.124 302.353C280.642 302.638 281.037 302.964 281.311 303.331C281.59 303.692 281.806 303.989 281.957 304.221H282.167V302.091H284.157V315.884C284.157 317.036 283.895 317.973 283.371 318.695C282.853 319.423 282.155 319.955 281.276 320.293C280.403 320.636 279.431 320.808 278.36 320.808ZM278.291 313.44C279.117 313.44 279.815 313.251 280.386 312.872C280.956 312.494 281.39 311.95 281.686 311.24C281.983 310.53 282.132 309.68 282.132 308.691C282.132 307.725 281.986 306.872 281.695 306.133C281.404 305.394 280.973 304.815 280.403 304.396C279.833 303.977 279.129 303.767 278.291 303.767C277.418 303.767 276.69 303.989 276.108 304.431C275.532 304.873 275.098 305.467 274.807 306.212C274.522 306.957 274.38 307.783 274.38 308.691C274.38 309.622 274.525 310.446 274.816 311.161C275.113 311.871 275.549 312.43 276.126 312.837C276.708 313.239 277.429 313.44 278.291 313.44ZM182.82 345.5H180.55L187.115 327.622H189.35L195.914 345.5H193.645L188.302 330.45H188.163L182.82 345.5ZM183.658 338.516H192.807V340.437H183.658V338.516ZM198.42 345.5V332.091H200.41V334.117H200.55C200.794 333.453 201.237 332.915 201.877 332.502C202.517 332.088 203.239 331.882 204.042 331.882C204.193 331.882 204.382 331.885 204.609 331.89C204.836 331.896 205.008 331.905 205.124 331.917V334.012C205.054 333.994 204.894 333.968 204.644 333.933C204.4 333.892 204.141 333.872 203.867 333.872C203.215 333.872 202.633 334.009 202.121 334.282C201.615 334.55 201.213 334.923 200.917 335.4C200.626 335.871 200.48 336.41 200.48 337.015V345.5H198.42ZM214.238 332.091V333.837H207.289V332.091H214.238ZM209.314 328.879H211.375V341.659C211.375 342.241 211.459 342.677 211.628 342.968C211.802 343.254 212.024 343.446 212.291 343.545C212.565 343.638 212.853 343.684 213.155 343.684C213.382 343.684 213.569 343.673 213.714 343.649C213.86 343.62 213.976 343.597 214.063 343.579L214.482 345.43C214.343 345.483 214.148 345.535 213.897 345.587C213.647 345.645 213.33 345.675 212.946 345.675C212.364 345.675 211.794 345.549 211.235 345.299C210.682 345.049 210.222 344.668 209.856 344.156C209.495 343.643 209.314 342.998 209.314 342.218V328.879ZM217.337 345.5V332.091H219.397V345.5H217.337ZM218.385 329.856C217.983 329.856 217.637 329.72 217.346 329.446C217.061 329.173 216.918 328.844 216.918 328.46C216.918 328.076 217.061 327.747 217.346 327.473C217.637 327.2 217.983 327.063 218.385 327.063C218.786 327.063 219.129 327.2 219.415 327.473C219.706 327.747 219.851 328.076 219.851 328.46C219.851 328.844 219.706 329.173 219.415 329.446C219.129 329.72 218.786 329.856 218.385 329.856ZM232.668 335.094L230.818 335.618C230.701 335.31 230.53 335.01 230.303 334.719C230.081 334.422 229.779 334.178 229.395 333.986C229.011 333.794 228.519 333.698 227.919 333.698C227.099 333.698 226.415 333.887 225.868 334.265C225.327 334.637 225.056 335.112 225.056 335.688C225.056 336.2 225.242 336.605 225.615 336.901C225.987 337.198 226.569 337.445 227.361 337.643L229.351 338.132C230.55 338.423 231.443 338.868 232.031 339.468C232.619 340.061 232.913 340.827 232.913 341.764C232.913 342.532 232.692 343.219 232.249 343.824C231.813 344.429 231.202 344.906 230.416 345.256C229.63 345.605 228.717 345.779 227.675 345.779C226.307 345.779 225.175 345.483 224.279 344.889C223.383 344.295 222.816 343.428 222.577 342.287L224.532 341.799C224.719 342.52 225.071 343.062 225.589 343.422C226.112 343.783 226.796 343.964 227.64 343.964C228.6 343.964 229.363 343.76 229.927 343.353C230.498 342.939 230.783 342.445 230.783 341.868C230.783 341.403 230.62 341.013 230.294 340.699C229.968 340.379 229.468 340.14 228.792 339.983L226.558 339.459C225.33 339.168 224.428 338.717 223.851 338.106C223.281 337.489 222.996 336.718 222.996 335.793C222.996 335.036 223.208 334.367 223.633 333.785C224.064 333.203 224.649 332.746 225.388 332.414C226.133 332.083 226.977 331.917 227.919 331.917C229.246 331.917 230.288 332.208 231.045 332.79C231.807 333.372 232.348 334.14 232.668 335.094ZM241.845 332.091V333.837H234.897V332.091H241.845ZM236.922 328.879H238.982V341.659C238.982 342.241 239.066 342.677 239.235 342.968C239.41 343.254 239.631 343.446 239.899 343.545C240.172 343.638 240.46 343.684 240.763 343.684C240.99 343.684 241.176 343.673 241.322 343.649C241.467 343.62 241.584 343.597 241.671 343.579L242.09 345.43C241.95 345.483 241.755 345.535 241.505 345.587C241.255 345.645 240.938 345.675 240.553 345.675C239.971 345.675 239.401 345.549 238.842 345.299C238.29 345.049 237.83 344.668 237.463 344.156C237.102 343.643 236.922 342.998 236.922 342.218V328.879ZM254.202 335.094L252.352 335.618C252.235 335.31 252.063 335.01 251.836 334.719C251.615 334.422 251.313 334.178 250.929 333.986C250.544 333.794 250.053 333.698 249.453 333.698C248.633 333.698 247.949 333.887 247.402 334.265C246.861 334.637 246.59 335.112 246.59 335.688C246.59 336.2 246.776 336.605 247.149 336.901C247.521 337.198 248.103 337.445 248.895 337.643L250.885 338.132C252.084 338.423 252.977 338.868 253.565 339.468C254.153 340.061 254.447 340.827 254.447 341.764C254.447 342.532 254.225 343.219 253.783 343.824C253.347 344.429 252.736 344.906 251.95 345.256C251.164 345.605 250.251 345.779 249.209 345.779C247.841 345.779 246.709 345.483 245.813 344.889C244.917 344.295 244.349 343.428 244.111 342.287L246.066 341.799C246.252 342.52 246.605 343.062 247.122 343.422C247.646 343.783 248.33 343.964 249.174 343.964C250.134 343.964 250.897 343.76 251.461 343.353C252.031 342.939 252.317 342.445 252.317 341.868C252.317 341.403 252.154 341.013 251.828 340.699C251.502 340.379 251.001 340.14 250.326 339.983L248.091 339.459C246.863 339.168 245.961 338.717 245.385 338.106C244.815 337.489 244.53 336.718 244.53 335.793C244.53 335.036 244.742 334.367 245.167 333.785C245.598 333.203 246.183 332.746 246.922 332.414C247.667 332.083 248.51 331.917 249.453 331.917C250.78 331.917 251.822 332.208 252.578 332.79C253.341 333.372 253.882 334.14 254.202 335.094Z" fill="white"/>
<path d="M200.353 244.78C199.691 244.78 199.066 244.673 198.552 244.414C198.018 244.18 197.504 243.859 197.011 243.472C196.538 243.086 196.196 242.617 196.003 242.037C195.81 241.458 195.662 240.816 195.576 240.154L195.724 207.688H281.491L242.515 244.78H200.197H200.353ZM237.746 113.5C238.325 113.5 238.922 113.627 239.567 113.866C240.188 114.1 240.661 114.421 241.002 114.808C241.343 115.194 241.664 115.663 241.944 116.263C242.244 116.843 242.33 117.464 242.244 118.126L242.371 150.592H156.304L195.58 113.5H237.746ZM153.41 160.444C153.303 159.782 153.41 159.182 153.689 158.643C153.989 158.108 154.331 157.615 154.717 157.187C155.104 156.76 155.572 156.414 156.152 156.18C156.752 155.921 157.328 155.814 157.908 155.814H190.502L190.354 241.733L153.414 202.606L153.266 160.44L153.41 160.444Z" fill="#FD1640"/>
<path d="M200.353 244.78C199.691 244.78 199.066 244.673 198.552 244.414C198.018 244.18 197.504 243.859 197.011 243.472C196.538 243.086 196.196 242.617 196.003 242.037C195.81 241.458 195.662 240.816 195.576 240.154L195.724 207.688H281.491L242.515 244.78H200.197H200.353ZM237.746 113.5C238.325 113.5 238.922 113.627 239.567 113.866C240.188 114.1 240.661 114.421 241.002 114.808C241.343 115.194 241.664 115.663 241.944 116.263C242.244 116.843 242.33 117.464 242.244 118.126L242.371 150.592H156.304L195.58 113.5H237.746ZM153.41 160.444C153.303 159.782 153.41 159.182 153.689 158.643C153.989 158.108 154.331 157.615 154.717 157.187C155.104 156.76 155.572 156.414 156.152 156.18C156.752 155.921 157.328 155.814 157.908 155.814H190.502L190.354 241.733L153.414 202.606L153.266 160.44L153.41 160.444Z" fill="#FD1640"/>
<defs>
<linearGradient id="paint0_linear_3074_839" x1="6.23643" y1="65.4922" x2="6.23643" y2="362.165" gradientUnits="userSpaceOnUse">
<stop stop-color="#DC062D"/>
<stop offset="1" stop-color="#DC062D" stop-opacity="0"/>
</linearGradient>
<linearGradient id="paint1_linear_3074_839" x1="429.131" y1="65.4922" x2="429.131" y2="362.165" gradientUnits="userSpaceOnUse">
<stop stop-color="#DC062D"/>
<stop offset="1" stop-color="#DC062D" stop-opacity="0"/>
</linearGradient>
<linearGradient id="paint2_linear_3074_839" x1="217.144" y1="4" x2="217.144" y2="421.5" gradientUnits="userSpaceOnUse">
<stop stop-color="#FD1640"/>
<stop offset="1" stop-color="#FB133D"/>
</linearGradient>
</defs>
</svg>
