<svg width="434" height="425" viewBox="0 0 434 425" fill="none" xmlns="http://www.w3.org/2000/svg">
<path d="M3 362.165V65.4922L9.47287 73.0439V355.692L3 362.165Z" fill="url(#paint0_linear_3074_838)"/>
<path d="M432.367 362.165V65.4922L425.894 73.0439V355.692L432.367 362.165Z" fill="url(#paint1_linear_3074_838)"/>
<path d="M430.21 26.655V54.7041L416.185 64.4134V361.087L428.052 372.953V398.845L405.397 421.5H278.097L272.703 416.106H159.428L154.034 421.5H28.8918L5.15791 397.766V375.111L17.0248 363.244V65.4922L4.0791 52.5465V26.655L26.7341 4H155.113L160.507 9.39406H271.624L275.94 4H406.476L430.21 26.655Z" stroke="url(#paint2_linear_3074_838)" stroke-width="6.47287"/>
<path d="M142.444 315.5H136.927V297.622H142.689C144.423 297.622 145.907 297.98 147.141 298.695C148.375 299.405 149.321 300.427 149.978 301.76C150.636 303.086 150.965 304.675 150.965 306.526C150.965 308.388 150.633 309.992 149.969 311.336C149.306 312.675 148.34 313.705 147.071 314.426C145.802 315.142 144.26 315.5 142.444 315.5ZM139.092 313.579H142.305C143.783 313.579 145.008 313.294 145.98 312.724C146.952 312.154 147.676 311.342 148.154 310.288C148.631 309.235 148.869 307.981 148.869 306.526C148.869 305.083 148.634 303.84 148.162 302.798C147.691 301.751 146.987 300.948 146.05 300.389C145.113 299.824 143.946 299.542 142.549 299.542H139.092V313.579ZM154.317 315.5V302.091H156.377V315.5H154.317ZM155.364 299.856C154.963 299.856 154.616 299.72 154.326 299.446C154.04 299.173 153.898 298.844 153.898 298.46C153.898 298.076 154.04 297.747 154.326 297.473C154.616 297.2 154.963 297.063 155.364 297.063C155.766 297.063 156.109 297.2 156.394 297.473C156.685 297.747 156.831 298.076 156.831 298.46C156.831 298.844 156.685 299.173 156.394 299.446C156.109 299.72 155.766 299.856 155.364 299.856ZM165.563 320.808C164.568 320.808 163.712 320.68 162.996 320.424C162.28 320.173 161.684 319.842 161.207 319.428C160.735 319.021 160.36 318.584 160.081 318.119L161.722 316.967C161.908 317.211 162.144 317.49 162.429 317.805C162.714 318.125 163.104 318.401 163.599 318.634C164.099 318.873 164.754 318.992 165.563 318.992C166.645 318.992 167.539 318.73 168.243 318.206C168.947 317.682 169.299 316.862 169.299 315.744V313.021H169.124C168.973 313.265 168.758 313.568 168.478 313.929C168.205 314.284 167.809 314.601 167.291 314.88C166.779 315.154 166.087 315.29 165.214 315.29C164.131 315.29 163.159 315.034 162.298 314.522C161.442 314.01 160.764 313.265 160.264 312.287C159.769 311.31 159.522 310.123 159.522 308.726C159.522 307.352 159.763 306.156 160.246 305.138C160.729 304.114 161.402 303.322 162.263 302.763C163.124 302.199 164.119 301.917 165.248 301.917C166.121 301.917 166.814 302.062 167.326 302.353C167.844 302.638 168.24 302.964 168.513 303.331C168.793 303.692 169.008 303.989 169.159 304.221H169.369V302.091H171.359V315.884C171.359 317.036 171.097 317.973 170.574 318.695C170.056 319.423 169.357 319.955 168.478 320.293C167.605 320.636 166.634 320.808 165.563 320.808ZM165.493 313.44C166.319 313.44 167.018 313.251 167.588 312.872C168.158 312.494 168.592 311.95 168.889 311.24C169.186 310.53 169.334 309.68 169.334 308.691C169.334 307.725 169.188 306.872 168.897 306.133C168.606 305.394 168.176 304.815 167.605 304.396C167.035 303.977 166.331 303.767 165.493 303.767C164.62 303.767 163.892 303.989 163.31 304.431C162.734 304.873 162.301 305.467 162.01 306.212C161.725 306.957 161.582 307.783 161.582 308.691C161.582 309.622 161.728 310.446 162.018 311.161C162.315 311.871 162.752 312.43 163.328 312.837C163.91 313.239 164.632 313.44 165.493 313.44ZM175.13 315.5V302.091H177.191V315.5H175.13ZM176.178 299.856C175.776 299.856 175.43 299.72 175.139 299.446C174.854 299.173 174.711 298.844 174.711 298.46C174.711 298.076 174.854 297.747 175.139 297.473C175.43 297.2 175.776 297.063 176.178 297.063C176.58 297.063 176.923 297.2 177.208 297.473C177.499 297.747 177.645 298.076 177.645 298.46C177.645 298.844 177.499 299.173 177.208 299.446C176.923 299.72 176.58 299.856 176.178 299.856ZM186.795 302.091V303.837H179.847V302.091H186.795ZM181.872 298.879H183.932V311.659C183.932 312.241 184.016 312.677 184.185 312.968C184.36 313.254 184.581 313.446 184.849 313.545C185.122 313.638 185.41 313.684 185.713 313.684C185.94 313.684 186.126 313.673 186.272 313.649C186.417 313.62 186.533 313.597 186.621 313.579L187.04 315.43C186.9 315.483 186.705 315.535 186.455 315.587C186.205 315.645 185.887 315.675 185.503 315.675C184.921 315.675 184.351 315.549 183.792 315.299C183.24 315.049 182.78 314.668 182.413 314.156C182.052 313.643 181.872 312.998 181.872 312.218V298.879ZM193.84 315.814C192.991 315.814 192.219 315.654 191.527 315.334C190.834 315.008 190.284 314.54 189.877 313.929C189.47 313.312 189.266 312.567 189.266 311.694C189.266 310.926 189.417 310.303 189.72 309.826C190.022 309.343 190.427 308.964 190.933 308.691C191.44 308.417 191.998 308.214 192.609 308.08C193.226 307.94 193.846 307.83 194.469 307.748C195.283 307.643 195.944 307.565 196.45 307.512C196.962 307.454 197.335 307.358 197.568 307.224C197.806 307.09 197.926 306.858 197.926 306.526V306.456C197.926 305.595 197.69 304.926 197.219 304.448C196.753 303.971 196.046 303.732 195.097 303.732C194.114 303.732 193.343 303.948 192.784 304.378C192.225 304.809 191.832 305.269 191.605 305.758L189.65 305.059C189.999 304.245 190.465 303.61 191.047 303.156C191.635 302.697 192.275 302.376 192.967 302.196C193.666 302.01 194.352 301.917 195.027 301.917C195.458 301.917 195.953 301.969 196.511 302.074C197.076 302.173 197.62 302.379 198.144 302.694C198.674 303.008 199.113 303.482 199.462 304.117C199.811 304.751 199.986 305.601 199.986 306.666V315.5H197.926V313.684H197.821C197.681 313.975 197.448 314.287 197.123 314.618C196.797 314.95 196.363 315.232 195.822 315.465C195.281 315.698 194.62 315.814 193.84 315.814ZM194.154 313.964C194.969 313.964 195.656 313.804 196.215 313.483C196.779 313.163 197.204 312.75 197.489 312.244C197.78 311.738 197.926 311.205 197.926 310.646V308.761C197.838 308.865 197.646 308.962 197.35 309.049C197.059 309.13 196.721 309.203 196.337 309.267C195.959 309.325 195.589 309.378 195.228 309.424C194.873 309.465 194.585 309.5 194.364 309.529C193.829 309.599 193.328 309.712 192.862 309.869C192.403 310.021 192.03 310.251 191.745 310.559C191.466 310.862 191.326 311.275 191.326 311.799C191.326 312.514 191.591 313.056 192.12 313.422C192.656 313.783 193.334 313.964 194.154 313.964ZM205.806 297.622V315.5H203.746V297.622H205.806ZM221.941 315.779C220.684 315.779 219.601 315.483 218.693 314.889C217.786 314.295 217.087 313.478 216.598 312.436C216.109 311.394 215.865 310.204 215.865 308.865C215.865 307.504 216.115 306.302 216.616 305.26C217.122 304.213 217.826 303.395 218.728 302.807C219.636 302.213 220.695 301.917 221.906 301.917C222.849 301.917 223.698 302.091 224.455 302.44C225.212 302.79 225.831 303.279 226.314 303.907C226.797 304.536 227.097 305.269 227.214 306.107H225.153C224.996 305.496 224.647 304.955 224.106 304.483C223.57 304.006 222.849 303.767 221.941 303.767C221.138 303.767 220.434 303.977 219.828 304.396C219.229 304.809 218.76 305.394 218.423 306.151C218.091 306.901 217.925 307.783 217.925 308.796C217.925 309.832 218.088 310.734 218.414 311.502C218.746 312.27 219.211 312.867 219.811 313.291C220.416 313.716 221.126 313.929 221.941 313.929C222.476 313.929 222.962 313.836 223.399 313.649C223.835 313.463 224.205 313.195 224.507 312.846C224.81 312.497 225.025 312.078 225.153 311.589H227.214C227.097 312.381 226.809 313.094 226.349 313.728C225.895 314.356 225.293 314.857 224.542 315.229C223.797 315.596 222.93 315.779 221.941 315.779ZM238.676 310.018V302.091H240.736V315.5H238.676V313.23H238.536C238.222 313.911 237.733 314.49 237.069 314.967C236.406 315.439 235.568 315.675 234.555 315.675C233.717 315.675 232.972 315.491 232.32 315.125C231.669 314.752 231.156 314.193 230.784 313.449C230.412 312.698 230.225 311.752 230.225 310.611V302.091H232.286V310.472C232.286 311.449 232.559 312.229 233.106 312.811C233.659 313.393 234.363 313.684 235.219 313.684C235.731 313.684 236.252 313.553 236.781 313.291C237.317 313.03 237.765 312.628 238.126 312.087C238.492 311.545 238.676 310.856 238.676 310.018ZM246.569 297.622V315.5H244.509V297.622H246.569ZM256.174 302.091V303.837H249.225V302.091H256.174ZM251.251 298.879H253.311V311.659C253.311 312.241 253.395 312.677 253.564 312.968C253.739 313.254 253.96 313.446 254.227 313.545C254.501 313.638 254.789 313.684 255.092 313.684C255.319 313.684 255.505 313.673 255.65 313.649C255.796 313.62 255.912 313.597 256 313.579L256.419 315.43C256.279 315.483 256.084 315.535 255.834 315.587C255.583 315.645 255.266 315.675 254.882 315.675C254.3 315.675 253.73 315.549 253.171 315.299C252.618 315.049 252.159 314.668 251.792 314.156C251.431 313.643 251.251 312.998 251.251 312.218V298.879ZM267.723 310.018V302.091H269.784V315.5H267.723V313.23H267.584C267.27 313.911 266.781 314.49 266.117 314.967C265.454 315.439 264.616 315.675 263.603 315.675C262.765 315.675 262.02 315.491 261.368 315.125C260.716 314.752 260.204 314.193 259.832 313.449C259.459 312.698 259.273 311.752 259.273 310.611V302.091H261.333V310.472C261.333 311.449 261.607 312.229 262.154 312.811C262.707 313.393 263.411 313.684 264.267 313.684C264.779 313.684 265.3 313.553 265.829 313.291C266.365 313.03 266.813 312.628 267.173 312.087C267.54 311.545 267.723 310.856 267.723 310.018ZM273.557 315.5V302.091H275.547V304.117H275.687C275.931 303.453 276.374 302.915 277.014 302.502C277.654 302.088 278.376 301.882 279.179 301.882C279.33 301.882 279.519 301.885 279.746 301.89C279.973 301.896 280.145 301.905 280.261 301.917V304.012C280.192 303.994 280.032 303.968 279.781 303.933C279.537 303.892 279.278 303.872 279.004 303.872C278.353 303.872 277.771 304.009 277.258 304.282C276.752 304.55 276.351 304.923 276.054 305.4C275.763 305.871 275.617 306.41 275.617 307.015V315.5H273.557ZM286.649 315.814C285.8 315.814 285.028 315.654 284.336 315.334C283.643 315.008 283.093 314.54 282.686 313.929C282.279 313.312 282.075 312.567 282.075 311.694C282.075 310.926 282.226 310.303 282.529 309.826C282.832 309.343 283.236 308.964 283.742 308.691C284.249 308.417 284.807 308.214 285.418 308.08C286.035 307.94 286.655 307.83 287.278 307.748C288.093 307.643 288.753 307.565 289.259 307.512C289.772 307.454 290.144 307.358 290.377 307.224C290.615 307.09 290.735 306.858 290.735 306.526V306.456C290.735 305.595 290.499 304.926 290.028 304.448C289.562 303.971 288.855 303.732 287.906 303.732C286.923 303.732 286.152 303.948 285.593 304.378C285.034 304.809 284.641 305.269 284.415 305.758L282.459 305.059C282.808 304.245 283.274 303.61 283.856 303.156C284.444 302.697 285.084 302.376 285.776 302.196C286.475 302.01 287.161 301.917 287.837 301.917C288.267 301.917 288.762 301.969 289.321 302.074C289.885 302.173 290.429 302.379 290.953 302.694C291.483 303.008 291.922 303.482 292.271 304.117C292.62 304.751 292.795 305.601 292.795 306.666V315.5H290.735V313.684H290.63C290.49 313.975 290.258 314.287 289.932 314.618C289.606 314.95 289.172 315.232 288.631 315.465C288.09 315.698 287.429 315.814 286.649 315.814ZM286.964 313.964C287.778 313.964 288.465 313.804 289.024 313.483C289.588 313.163 290.013 312.75 290.298 312.244C290.589 311.738 290.735 311.205 290.735 310.646V308.761C290.647 308.865 290.455 308.962 290.159 309.049C289.868 309.13 289.53 309.203 289.146 309.267C288.768 309.325 288.398 309.378 288.037 309.424C287.682 309.465 287.394 309.5 287.173 309.529C286.638 309.599 286.137 309.712 285.672 309.869C285.212 310.021 284.839 310.251 284.554 310.559C284.275 310.862 284.135 311.275 284.135 311.799C284.135 312.514 284.4 313.056 284.93 313.422C285.465 313.783 286.143 313.964 286.964 313.964ZM298.615 297.622V315.5H296.555V297.622H298.615ZM168.917 345.779C167.625 345.779 166.511 345.494 165.574 344.924C164.642 344.348 163.924 343.545 163.417 342.514C162.917 341.479 162.667 340.274 162.667 338.9C162.667 337.527 162.917 336.316 163.417 335.269C163.924 334.215 164.628 333.395 165.53 332.807C166.438 332.213 167.497 331.917 168.708 331.917C169.406 331.917 170.096 332.033 170.776 332.266C171.457 332.499 172.077 332.877 172.636 333.401C173.195 333.919 173.64 334.605 173.972 335.461C174.303 336.316 174.469 337.37 174.469 338.621V339.494H164.133V337.713H172.374C172.374 336.957 172.223 336.282 171.92 335.688C171.623 335.094 171.198 334.626 170.646 334.282C170.098 333.939 169.453 333.767 168.708 333.767C167.887 333.767 167.177 333.971 166.578 334.378C165.984 334.78 165.527 335.304 165.207 335.95C164.887 336.596 164.727 337.288 164.727 338.027V339.215C164.727 340.227 164.901 341.086 165.251 341.79C165.606 342.488 166.097 343.021 166.726 343.387C167.354 343.748 168.085 343.929 168.917 343.929C169.458 343.929 169.947 343.853 170.384 343.702C170.826 343.545 171.207 343.312 171.527 343.003C171.847 342.689 172.095 342.299 172.269 341.834L174.26 342.392C174.05 343.067 173.698 343.661 173.203 344.173C172.709 344.679 172.098 345.075 171.37 345.36C170.643 345.64 169.825 345.779 168.917 345.779ZM178.779 332.091L181.992 337.573L185.204 332.091H187.579L183.249 338.796L187.579 345.5H185.204L181.992 340.297L178.779 345.5H176.405L180.665 338.796L176.405 332.091H178.779ZM195.414 345.779C194.157 345.779 193.074 345.483 192.166 344.889C191.258 344.295 190.56 343.478 190.071 342.436C189.582 341.394 189.338 340.204 189.338 338.865C189.338 337.504 189.588 336.302 190.089 335.26C190.595 334.213 191.299 333.395 192.201 332.807C193.109 332.213 194.168 331.917 195.379 331.917C196.322 331.917 197.171 332.091 197.928 332.44C198.684 332.79 199.304 333.279 199.787 333.907C200.27 334.536 200.57 335.269 200.686 336.107H198.626C198.469 335.496 198.12 334.955 197.579 334.483C197.043 334.006 196.322 333.767 195.414 333.767C194.611 333.767 193.906 333.977 193.301 334.396C192.702 334.809 192.233 335.394 191.896 336.151C191.564 336.901 191.398 337.783 191.398 338.796C191.398 339.832 191.561 340.734 191.887 341.502C192.219 342.27 192.684 342.867 193.284 343.291C193.889 343.716 194.599 343.929 195.414 343.929C195.949 343.929 196.435 343.836 196.872 343.649C197.308 343.463 197.678 343.195 197.98 342.846C198.283 342.497 198.498 342.078 198.626 341.589H200.686C200.57 342.381 200.282 343.094 199.822 343.728C199.368 344.356 198.766 344.857 198.015 345.229C197.27 345.596 196.403 345.779 195.414 345.779ZM205.758 337.434V345.5H203.698V327.622H205.758V334.186H205.933C206.247 333.494 206.719 332.944 207.347 332.536C207.981 332.123 208.825 331.917 209.879 331.917C210.792 331.917 211.593 332.1 212.279 332.467C212.966 332.827 213.499 333.383 213.877 334.134C214.261 334.879 214.453 335.828 214.453 336.98V345.5H212.393V337.12C212.393 336.055 212.116 335.231 211.564 334.649C211.016 334.061 210.257 333.767 209.285 333.767C208.61 333.767 208.005 333.91 207.469 334.195C206.94 334.48 206.521 334.896 206.212 335.443C205.91 335.991 205.758 336.654 205.758 337.434ZM222.168 345.814C221.318 345.814 220.547 345.654 219.854 345.334C219.162 345.008 218.612 344.54 218.205 343.929C217.797 343.312 217.594 342.567 217.594 341.694C217.594 340.926 217.745 340.303 218.047 339.826C218.35 339.343 218.755 338.964 219.261 338.691C219.767 338.417 220.326 338.214 220.937 338.08C221.554 337.94 222.174 337.83 222.796 337.748C223.611 337.643 224.272 337.565 224.778 337.512C225.29 337.454 225.663 337.358 225.895 337.224C226.134 337.09 226.253 336.858 226.253 336.526V336.456C226.253 335.595 226.018 334.926 225.546 334.448C225.081 333.971 224.374 333.732 223.425 333.732C222.441 333.732 221.67 333.948 221.112 334.378C220.553 334.809 220.16 335.269 219.933 335.758L217.978 335.059C218.327 334.245 218.792 333.61 219.374 333.156C219.962 332.697 220.602 332.376 221.295 332.196C221.993 332.01 222.68 331.917 223.355 331.917C223.786 331.917 224.28 331.969 224.839 332.074C225.404 332.173 225.948 332.379 226.472 332.694C227.001 333.008 227.441 333.482 227.79 334.117C228.139 334.751 228.314 335.601 228.314 336.666V345.5H226.253V343.684H226.149C226.009 343.975 225.776 344.287 225.45 344.618C225.124 344.95 224.691 345.232 224.149 345.465C223.608 345.698 222.948 345.814 222.168 345.814ZM222.482 343.964C223.297 343.964 223.984 343.804 224.542 343.483C225.107 343.163 225.532 342.75 225.817 342.244C226.108 341.738 226.253 341.205 226.253 340.646V338.761C226.166 338.865 225.974 338.962 225.677 339.049C225.386 339.13 225.049 339.203 224.665 339.267C224.286 339.325 223.917 339.378 223.556 339.424C223.201 339.465 222.913 339.5 222.692 339.529C222.156 339.599 221.656 339.712 221.19 339.869C220.73 340.021 220.358 340.251 220.073 340.559C219.793 340.862 219.654 341.275 219.654 341.799C219.654 342.514 219.919 343.056 220.448 343.422C220.984 343.783 221.662 343.964 222.482 343.964ZM234.134 337.434V345.5H232.074V332.091H234.064V334.186H234.239C234.553 333.505 235.03 332.958 235.67 332.545C236.311 332.126 237.137 331.917 238.15 331.917C239.058 331.917 239.852 332.103 240.533 332.475C241.214 332.842 241.743 333.401 242.122 334.151C242.5 334.896 242.689 335.839 242.689 336.98V345.5H240.629V337.12C240.629 336.066 240.355 335.246 239.808 334.658C239.261 334.064 238.51 333.767 237.556 333.767C236.898 333.767 236.311 333.91 235.793 334.195C235.28 334.48 234.876 334.896 234.579 335.443C234.282 335.991 234.134 336.654 234.134 337.434ZM251.866 350.808C250.871 350.808 250.015 350.68 249.3 350.424C248.584 350.173 247.987 349.842 247.51 349.428C247.039 349.021 246.663 348.584 246.384 348.119L248.025 346.967C248.211 347.211 248.447 347.49 248.732 347.805C249.017 348.125 249.407 348.401 249.902 348.634C250.402 348.873 251.057 348.992 251.866 348.992C252.949 348.992 253.842 348.73 254.546 348.206C255.25 347.682 255.602 346.862 255.602 345.744V343.021H255.428C255.276 343.265 255.061 343.568 254.782 343.929C254.508 344.284 254.113 344.601 253.595 344.88C253.082 345.154 252.39 345.29 251.517 345.29C250.434 345.29 249.463 345.034 248.601 344.522C247.746 344.01 247.068 343.265 246.567 342.287C246.073 341.31 245.825 340.123 245.825 338.726C245.825 337.352 246.067 336.156 246.55 335.138C247.033 334.114 247.705 333.322 248.566 332.763C249.428 332.199 250.423 331.917 251.552 331.917C252.425 331.917 253.117 332.062 253.629 332.353C254.147 332.638 254.543 332.964 254.817 333.331C255.096 333.692 255.311 333.989 255.463 334.221H255.672V332.091H257.663V345.884C257.663 347.036 257.401 347.973 256.877 348.695C256.359 349.423 255.661 349.955 254.782 350.293C253.909 350.636 252.937 350.808 251.866 350.808ZM251.796 343.44C252.623 343.44 253.321 343.251 253.891 342.872C254.462 342.494 254.895 341.95 255.192 341.24C255.489 340.53 255.637 339.68 255.637 338.691C255.637 337.725 255.492 336.872 255.201 336.133C254.91 335.394 254.479 334.815 253.909 334.396C253.338 333.977 252.634 333.767 251.796 333.767C250.923 333.767 250.196 333.989 249.614 334.431C249.038 334.873 248.604 335.467 248.313 336.212C248.028 336.957 247.885 337.783 247.885 338.691C247.885 339.622 248.031 340.446 248.322 341.161C248.619 341.871 249.055 342.43 249.631 342.837C250.213 343.239 250.935 343.44 251.796 343.44ZM267.056 345.779C265.764 345.779 264.649 345.494 263.712 344.924C262.781 344.348 262.062 343.545 261.556 342.514C261.055 341.479 260.805 340.274 260.805 338.9C260.805 337.527 261.055 336.316 261.556 335.269C262.062 334.215 262.766 333.395 263.669 332.807C264.576 332.213 265.636 331.917 266.846 331.917C267.544 331.917 268.234 332.033 268.915 332.266C269.596 332.499 270.216 332.877 270.774 333.401C271.333 333.919 271.778 334.605 272.11 335.461C272.442 336.316 272.608 337.37 272.608 338.621V339.494H262.272V337.713H270.513C270.513 336.957 270.361 336.282 270.059 335.688C269.762 335.094 269.337 334.626 268.784 334.282C268.237 333.939 267.591 333.767 266.846 333.767C266.026 333.767 265.316 333.971 264.716 334.378C264.122 334.78 263.666 335.304 263.346 335.95C263.025 336.596 262.865 337.288 262.865 338.027V339.215C262.865 340.227 263.04 341.086 263.389 341.79C263.744 342.488 264.236 343.021 264.864 343.387C265.493 343.748 266.223 343.929 267.056 343.929C267.597 343.929 268.086 343.853 268.522 343.702C268.965 343.545 269.346 343.312 269.666 343.003C269.986 342.689 270.233 342.299 270.408 341.834L272.398 342.392C272.189 343.067 271.837 343.661 271.342 344.173C270.847 344.679 270.236 345.075 269.509 345.36C268.781 345.64 267.964 345.779 267.056 345.779Z" fill="white"/>
<path d="M264.524 113.5C258.533 120.932 250.461 127.922 240.726 133.541C230.322 139.546 219.491 143.052 209.519 144.308C210.099 146.023 210.74 147.745 211.446 149.471C215.976 149.549 219.754 149.348 221.745 149.047L224.424 148.614L226.811 148.252L226.873 151.133C226.825 152.879 226.722 154.644 226.563 156.429L242.582 158.93C242.825 158.904 243.067 158.888 243.307 158.886C246.472 158.854 249.372 160.948 250.229 164.146C250.415 164.838 250.49 165.533 250.468 166.215C252.157 165.628 253.793 164.997 255.356 164.314L258.071 163.129L258.725 166.02C259.71 170.351 260.43 174.899 260.811 179.616C270.034 174.947 278.563 168.688 285.511 160.708C284.6 150.317 280.941 138.631 274.443 127.379C274.235 127.019 274.027 126.665 273.815 126.31L266.018 146.501C267.476 146.717 268.882 147.394 270.005 148.517C272.78 151.291 272.781 155.784 270.005 158.56C267.229 161.335 262.728 161.334 259.954 158.56C257.447 156.054 257.212 152.144 259.237 149.366L270.253 120.838C268.428 118.241 266.514 115.793 264.524 113.5ZM160.711 138.421C158.318 143.336 156.253 148.661 154.717 154.387C150.726 169.272 150.768 183.717 153.922 194.964C157.684 194.227 161.402 193.844 165.043 193.824C165.568 193.821 166.086 193.83 166.607 193.841C172.508 193.977 178.2 195.067 183.572 197.094C183.267 193.938 183.104 190.708 183.104 187.414C183.104 179.55 183.991 172.031 185.65 165.084L186.349 162.14L189.08 163.43C197.416 167.385 207.806 170.057 219.146 170.565C220.599 164.893 221.463 159.311 221.807 153.945C211.85 155.311 200.481 154.727 188.877 151.619C178.024 148.714 168.419 144.044 160.711 138.421L160.711 138.421ZM225.944 161.68C225.51 164.637 224.921 167.629 224.185 170.644C228.675 170.59 233.036 170.193 237.198 169.521C236.899 169.001 236.662 168.44 236.499 167.833C236.088 166.296 236.217 164.742 236.765 163.369L225.944 161.68V161.68ZM175.749 161.804L176.925 166.958L170.816 168.346C173.291 169.809 174.593 172.788 173.813 175.701C172.874 179.207 169.274 181.29 165.768 180.351C162.262 179.412 160.178 175.804 161.117 172.297C161.309 171.585 161.614 170.934 162.002 170.353L156.043 171.705L154.877 166.551L175.748 161.804L175.749 161.804ZM285.679 168.257C278.457 175.46 270.033 181.113 261.094 185.372C261.108 186.05 261.12 186.73 261.12 187.414C261.12 190.014 261.02 192.572 260.829 195.088C265.535 195.464 269.894 194.607 273.656 192.436C280.99 188.203 285.144 179.509 285.679 168.257L285.679 168.257ZM189.823 169.106C188.683 174.762 188.032 180.792 188.011 187.096L188.046 186.999C196.693 189.877 205.761 191.97 214.991 193.046L217.113 193.294L217.316 195.415L218.925 212.424L213.656 212.919L212.94 205.352C211.654 205.882 210.189 206.014 208.741 205.626C205.235 204.687 203.151 201.088 204.091 197.581C204.171 197.282 204.274 196.993 204.391 196.715C198.865 195.661 193.433 194.284 188.152 192.605C188.913 206.642 192.722 219.208 198.362 228.435C204.69 238.785 213.11 244.78 222.116 244.78C231.123 244.781 239.543 238.786 245.871 228.435C251.397 219.393 255.163 207.149 256.028 193.453C251.566 194.771 247.005 195.872 242.378 196.751C242.92 198.043 243.062 199.517 242.671 200.976C241.731 204.483 238.132 206.566 234.626 205.626C234.419 205.571 234.221 205.506 234.025 205.432L233.317 212.92L228.057 212.425L229.666 195.416L229.87 193.294L231.991 193.047C240.264 192.083 248.398 190.298 256.223 187.866V187.415C256.223 181.313 255.581 175.469 254.507 169.947C245.378 173.481 234.616 175.559 223.08 175.559C210.749 175.559 199.321 173.11 189.823 169.106V169.106ZM165.07 199.084C161.995 199.112 158.848 199.429 155.628 200.021C159.22 208.966 164.997 215.034 172.319 216.994C177.1 218.274 182.191 217.712 187.259 215.509C186.02 211.58 185.032 207.417 184.333 203.07C178.36 200.348 171.904 199.019 165.07 199.083V199.084ZM203.967 221.777H240.973C229.634 234.392 214.771 233.897 203.967 221.777Z" fill="#FD1640"/>
<defs>
<linearGradient id="paint0_linear_3074_838" x1="6.23643" y1="65.4922" x2="6.23643" y2="362.165" gradientUnits="userSpaceOnUse">
<stop stop-color="#DC062D"/>
<stop offset="1" stop-color="#DC062D" stop-opacity="0"/>
</linearGradient>
<linearGradient id="paint1_linear_3074_838" x1="429.131" y1="65.4922" x2="429.131" y2="362.165" gradientUnits="userSpaceOnUse">
<stop stop-color="#DC062D"/>
<stop offset="1" stop-color="#DC062D" stop-opacity="0"/>
</linearGradient>
<linearGradient id="paint2_linear_3074_838" x1="217.144" y1="4" x2="217.144" y2="421.5" gradientUnits="userSpaceOnUse">
<stop stop-color="#FD1640"/>
<stop offset="1" stop-color="#FB133D"/>
</linearGradient>
</defs>
</svg>
