<svg width="434" height="425" viewBox="0 0 434 425" fill="none" xmlns="http://www.w3.org/2000/svg">
<path d="M3 362.165V65.4922L9.47287 73.0439V355.692L3 362.165Z" fill="url(#paint0_linear_3074_842)"/>
<path d="M432.367 362.165V65.4922L425.894 73.0439V355.692L432.367 362.165Z" fill="url(#paint1_linear_3074_842)"/>
<path d="M430.21 26.655V54.7041L416.185 64.4134V361.087L428.052 372.953V398.845L405.397 421.5H278.097L272.703 416.106H159.428L154.034 421.5H28.8918L5.15791 397.766V375.111L17.0248 363.244V65.4922L4.0791 52.5465V26.655L26.7341 4H155.113L160.507 9.39406H271.624L275.94 4H406.476L430.21 26.655Z" stroke="url(#paint2_linear_3074_842)" stroke-width="6.47287"/>
<path d="M121.134 315.5H115.617V297.622H121.378C123.113 297.622 124.597 297.98 125.831 298.695C127.064 299.405 128.01 300.427 128.668 301.76C129.325 303.086 129.654 304.675 129.654 306.526C129.654 308.388 129.322 309.992 128.659 311.336C127.995 312.675 127.029 313.705 125.761 314.426C124.492 315.142 122.95 315.5 121.134 315.5ZM117.782 313.579H120.994C122.473 313.579 123.698 313.294 124.669 312.724C125.641 312.154 126.366 311.342 126.843 310.288C127.32 309.235 127.559 307.981 127.559 306.526C127.559 305.083 127.323 303.84 126.852 302.798C126.38 301.751 125.676 300.948 124.739 300.389C123.802 299.824 122.635 299.542 121.239 299.542H117.782V313.579ZM138.628 315.779C137.336 315.779 136.222 315.494 135.285 314.924C134.354 314.348 133.635 313.545 133.128 312.514C132.628 311.479 132.378 310.274 132.378 308.9C132.378 307.527 132.628 306.316 133.128 305.269C133.635 304.215 134.339 303.395 135.241 302.807C136.149 302.213 137.208 301.917 138.419 301.917C139.117 301.917 139.807 302.033 140.488 302.266C141.168 302.499 141.788 302.877 142.347 303.401C142.906 303.919 143.351 304.605 143.683 305.461C144.014 306.316 144.18 307.37 144.18 308.621V309.494H133.844V307.713H142.085C142.085 306.957 141.934 306.282 141.631 305.688C141.334 305.094 140.91 304.626 140.357 304.282C139.81 303.939 139.164 303.767 138.419 303.767C137.598 303.767 136.888 303.971 136.289 304.378C135.695 304.78 135.238 305.304 134.918 305.95C134.598 306.596 134.438 307.288 134.438 308.027V309.215C134.438 310.227 134.613 311.086 134.962 311.79C135.317 312.488 135.808 313.021 136.437 313.387C137.066 313.748 137.796 313.929 138.628 313.929C139.169 313.929 139.658 313.853 140.095 313.702C140.537 313.545 140.918 313.312 141.238 313.003C141.558 312.689 141.806 312.299 141.98 311.834L143.971 312.392C143.761 313.067 143.409 313.661 142.914 314.173C142.42 314.679 141.809 315.075 141.081 315.36C140.354 315.64 139.536 315.779 138.628 315.779ZM147.314 315.5V302.091H149.305V304.186H149.479C149.758 303.471 150.209 302.915 150.832 302.519C151.455 302.117 152.203 301.917 153.076 301.917C153.96 301.917 154.697 302.117 155.284 302.519C155.878 302.915 156.341 303.471 156.672 304.186H156.812C157.155 303.494 157.67 302.944 158.357 302.536C159.044 302.123 159.867 301.917 160.828 301.917C162.026 301.917 163.007 302.292 163.77 303.043C164.532 303.788 164.913 304.949 164.913 306.526V315.5H162.853V306.526C162.853 305.537 162.582 304.829 162.041 304.405C161.5 303.98 160.863 303.767 160.129 303.767C159.186 303.767 158.456 304.053 157.938 304.623C157.42 305.187 157.161 305.903 157.161 306.77V315.5H155.066V306.316C155.066 305.554 154.819 304.94 154.324 304.474C153.829 304.003 153.192 303.767 152.412 303.767C151.877 303.767 151.376 303.91 150.911 304.195C150.451 304.48 150.079 304.876 149.793 305.382C149.514 305.883 149.374 306.462 149.374 307.12V315.5H147.314ZM174.127 315.779C172.917 315.779 171.855 315.491 170.941 314.915C170.033 314.339 169.323 313.533 168.811 312.497C168.305 311.461 168.051 310.251 168.051 308.865C168.051 307.469 168.305 306.249 168.811 305.208C169.323 304.166 170.033 303.357 170.941 302.781C171.855 302.205 172.917 301.917 174.127 301.917C175.338 301.917 176.397 302.205 177.305 302.781C178.219 303.357 178.929 304.166 179.435 305.208C179.947 306.249 180.203 307.469 180.203 308.865C180.203 310.251 179.947 311.461 179.435 312.497C178.929 313.533 178.219 314.339 177.305 314.915C176.397 315.491 175.338 315.779 174.127 315.779ZM174.127 313.929C175.047 313.929 175.803 313.693 176.397 313.222C176.991 312.75 177.43 312.13 177.715 311.362C178 310.594 178.143 309.762 178.143 308.865C178.143 307.969 178 307.134 177.715 306.36C177.43 305.586 176.991 304.96 176.397 304.483C175.803 304.006 175.047 303.767 174.127 303.767C173.208 303.767 172.451 304.006 171.858 304.483C171.264 304.96 170.825 305.586 170.539 306.36C170.254 307.134 170.112 307.969 170.112 308.865C170.112 309.762 170.254 310.594 170.539 311.362C170.825 312.13 171.264 312.75 171.858 313.222C172.451 313.693 173.208 313.929 174.127 313.929ZM188.795 315.779C187.538 315.779 186.456 315.483 185.548 314.889C184.64 314.295 183.942 313.478 183.453 312.436C182.964 311.394 182.719 310.204 182.719 308.865C182.719 307.504 182.97 306.302 183.47 305.26C183.976 304.213 184.681 303.395 185.583 302.807C186.491 302.213 187.55 301.917 188.76 301.917C189.703 301.917 190.553 302.091 191.309 302.44C192.066 302.79 192.686 303.279 193.169 303.907C193.652 304.536 193.951 305.269 194.068 306.107H192.008C191.851 305.496 191.501 304.955 190.96 304.483C190.425 304.006 189.703 303.767 188.795 303.767C187.992 303.767 187.288 303.977 186.683 304.396C186.083 304.809 185.615 305.394 185.277 306.151C184.945 306.901 184.78 307.783 184.78 308.796C184.78 309.832 184.943 310.734 185.268 311.502C185.6 312.27 186.066 312.867 186.665 313.291C187.27 313.716 187.98 313.929 188.795 313.929C189.331 313.929 189.817 313.836 190.253 313.649C190.69 313.463 191.059 313.195 191.362 312.846C191.664 312.497 191.88 312.078 192.008 311.589H194.068C193.951 312.381 193.663 313.094 193.204 313.728C192.75 314.356 192.147 314.857 191.397 315.229C190.652 315.596 189.785 315.779 188.795 315.779ZM197.08 315.5V302.091H199.07V304.117H199.21C199.454 303.453 199.896 302.915 200.537 302.502C201.177 302.088 201.898 301.882 202.702 301.882C202.853 301.882 203.042 301.885 203.269 301.89C203.496 301.896 203.668 301.905 203.784 301.917V304.012C203.714 303.994 203.554 303.968 203.304 303.933C203.059 303.892 202.8 303.872 202.527 303.872C201.875 303.872 201.293 304.009 200.781 304.282C200.275 304.55 199.873 304.923 199.576 305.4C199.285 305.871 199.14 306.41 199.14 307.015V315.5H197.08ZM210.172 315.814C209.322 315.814 208.551 315.654 207.859 315.334C207.166 315.008 206.616 314.54 206.209 313.929C205.801 313.312 205.598 312.567 205.598 311.694C205.598 310.926 205.749 310.303 206.051 309.826C206.354 309.343 206.759 308.964 207.265 308.691C207.771 308.417 208.33 308.214 208.941 308.08C209.558 307.94 210.178 307.83 210.8 307.748C211.615 307.643 212.276 307.565 212.782 307.512C213.294 307.454 213.667 307.358 213.899 307.224C214.138 307.09 214.257 306.858 214.257 306.526V306.456C214.257 305.595 214.022 304.926 213.55 304.448C213.085 303.971 212.378 303.732 211.429 303.732C210.445 303.732 209.674 303.948 209.116 304.378C208.557 304.809 208.164 305.269 207.937 305.758L205.982 305.059C206.331 304.245 206.796 303.61 207.378 303.156C207.966 302.697 208.606 302.376 209.299 302.196C209.997 302.01 210.684 301.917 211.359 301.917C211.79 301.917 212.284 301.969 212.843 302.074C213.408 302.173 213.952 302.379 214.476 302.694C215.005 303.008 215.445 303.482 215.794 304.117C216.143 304.751 216.318 305.601 216.318 306.666V315.5H214.257V313.684H214.153C214.013 313.975 213.78 314.287 213.454 314.618C213.128 314.95 212.695 315.232 212.154 315.465C211.612 315.698 210.952 315.814 210.172 315.814ZM210.486 313.964C211.301 313.964 211.988 313.804 212.546 313.483C213.111 313.163 213.536 312.75 213.821 312.244C214.112 311.738 214.257 311.205 214.257 310.646V308.761C214.17 308.865 213.978 308.962 213.681 309.049C213.39 309.13 213.053 309.203 212.669 309.267C212.29 309.325 211.921 309.378 211.56 309.424C211.205 309.465 210.917 309.5 210.696 309.529C210.16 309.599 209.66 309.712 209.194 309.869C208.734 310.021 208.362 310.251 208.077 310.559C207.797 310.862 207.658 311.275 207.658 311.799C207.658 312.514 207.923 313.056 208.452 313.422C208.988 313.783 209.666 313.964 210.486 313.964ZM225.909 302.091V303.837H218.96V302.091H225.909ZM220.986 298.879H223.046V311.659C223.046 312.241 223.13 312.677 223.299 312.968C223.474 313.254 223.695 313.446 223.963 313.545C224.236 313.638 224.524 313.684 224.827 313.684C225.054 313.684 225.24 313.673 225.385 313.649C225.531 313.62 225.647 313.597 225.735 313.579L226.154 315.43C226.014 315.483 225.819 315.535 225.569 315.587C225.319 315.645 225.001 315.675 224.617 315.675C224.035 315.675 223.465 315.549 222.906 315.299C222.353 315.049 221.894 314.668 221.527 314.156C221.166 313.643 220.986 312.998 220.986 312.218V298.879ZM229.008 315.5V302.091H231.068V315.5H229.008ZM230.056 299.856C229.654 299.856 229.308 299.72 229.017 299.446C228.732 299.173 228.589 298.844 228.589 298.46C228.589 298.076 228.732 297.747 229.017 297.473C229.308 297.2 229.654 297.063 230.056 297.063C230.457 297.063 230.801 297.2 231.086 297.473C231.377 297.747 231.522 298.076 231.522 298.46C231.522 298.844 231.377 299.173 231.086 299.446C230.801 299.72 230.457 299.856 230.056 299.856ZM234.458 315.5V313.929L242.07 304.151V304.012H234.702V302.091H244.724V303.732L237.321 313.44V313.579H244.968V315.5H234.458ZM248.141 315.5V302.091H250.202V315.5H248.141ZM249.189 299.856C248.787 299.856 248.441 299.72 248.15 299.446C247.865 299.173 247.722 298.844 247.722 298.46C247.722 298.076 247.865 297.747 248.15 297.473C248.441 297.2 248.787 297.063 249.189 297.063C249.591 297.063 249.934 297.2 250.219 297.473C250.51 297.747 250.656 298.076 250.656 298.46C250.656 298.844 250.51 299.173 250.219 299.446C249.934 299.72 249.591 299.856 249.189 299.856ZM256.035 307.434V315.5H253.975V302.091H255.965V304.186H256.14C256.454 303.505 256.931 302.958 257.572 302.545C258.212 302.126 259.038 301.917 260.051 301.917C260.959 301.917 261.753 302.103 262.434 302.475C263.115 302.842 263.645 303.401 264.023 304.151C264.401 304.896 264.59 305.839 264.59 306.98V315.5H262.53V307.12C262.53 306.066 262.257 305.246 261.709 304.658C261.162 304.064 260.412 303.767 259.457 303.767C258.8 303.767 258.212 303.91 257.694 304.195C257.182 304.48 256.777 304.896 256.48 305.443C256.184 305.991 256.035 306.654 256.035 307.434ZM273.767 320.808C272.772 320.808 271.917 320.68 271.201 320.424C270.485 320.173 269.888 319.842 269.411 319.428C268.94 319.021 268.564 318.584 268.285 318.119L269.926 316.967C270.112 317.211 270.348 317.49 270.633 317.805C270.919 318.125 271.308 318.401 271.803 318.634C272.304 318.873 272.958 318.992 273.767 318.992C274.85 318.992 275.743 318.73 276.447 318.206C277.151 317.682 277.504 316.862 277.504 315.744V313.021H277.329C277.178 313.265 276.962 313.568 276.683 313.929C276.409 314.284 276.014 314.601 275.496 314.88C274.984 315.154 274.291 315.29 273.418 315.29C272.336 315.29 271.364 315.034 270.502 314.522C269.647 314.01 268.969 313.265 268.468 312.287C267.974 311.31 267.726 310.123 267.726 308.726C267.726 307.352 267.968 306.156 268.451 305.138C268.934 304.114 269.606 303.322 270.467 302.763C271.329 302.199 272.324 301.917 273.453 301.917C274.326 301.917 275.019 302.062 275.531 302.353C276.049 302.638 276.444 302.964 276.718 303.331C276.997 303.692 277.213 303.989 277.364 304.221H277.573V302.091H279.564V315.884C279.564 317.036 279.302 317.973 278.778 318.695C278.26 319.423 277.562 319.955 276.683 320.293C275.81 320.636 274.838 320.808 273.767 320.808ZM273.697 313.44C274.524 313.44 275.222 313.251 275.793 312.872C276.363 312.494 276.796 311.95 277.093 311.24C277.39 310.53 277.538 309.68 277.538 308.691C277.538 307.725 277.393 306.872 277.102 306.133C276.811 305.394 276.38 304.815 275.81 304.396C275.24 303.977 274.535 303.767 273.697 303.767C272.824 303.767 272.097 303.989 271.515 304.431C270.939 304.873 270.505 305.467 270.214 306.212C269.929 306.957 269.787 307.783 269.787 308.691C269.787 309.622 269.932 310.446 270.223 311.161C270.52 311.871 270.956 312.43 271.532 312.837C272.114 313.239 272.836 313.44 273.697 313.44ZM294.195 315.814C293.345 315.814 292.574 315.654 291.881 315.334C291.189 315.008 290.639 314.54 290.231 313.929C289.824 313.312 289.62 312.567 289.62 311.694C289.62 310.926 289.772 310.303 290.074 309.826C290.377 309.343 290.781 308.964 291.288 308.691C291.794 308.417 292.353 308.214 292.964 308.08C293.581 307.94 294.2 307.83 294.823 307.748C295.638 307.643 296.298 307.565 296.805 307.512C297.317 307.454 297.689 307.358 297.922 307.224C298.161 307.09 298.28 306.858 298.28 306.526V306.456C298.28 305.595 298.044 304.926 297.573 304.448C297.107 303.971 296.4 303.732 295.452 303.732C294.468 303.732 293.697 303.948 293.138 304.378C292.58 304.809 292.187 305.269 291.96 305.758L290.004 305.059C290.354 304.245 290.819 303.61 291.401 303.156C291.989 302.697 292.629 302.376 293.322 302.196C294.02 302.01 294.707 301.917 295.382 301.917C295.813 301.917 296.307 301.969 296.866 302.074C297.43 302.173 297.975 302.379 298.498 302.694C299.028 303.008 299.467 303.482 299.817 304.117C300.166 304.751 300.34 305.601 300.34 306.666V315.5H298.28V313.684H298.175C298.036 313.975 297.803 314.287 297.477 314.618C297.151 314.95 296.717 315.232 296.176 315.465C295.635 315.698 294.974 315.814 294.195 315.814ZM294.509 313.964C295.324 313.964 296.01 313.804 296.569 313.483C297.134 313.163 297.558 312.75 297.844 312.244C298.135 311.738 298.28 311.205 298.28 310.646V308.761C298.193 308.865 298.001 308.962 297.704 309.049C297.413 309.13 297.075 309.203 296.691 309.267C296.313 309.325 295.943 309.378 295.583 309.424C295.228 309.465 294.94 309.5 294.718 309.529C294.183 309.599 293.682 309.712 293.217 309.869C292.757 310.021 292.385 310.251 292.1 310.559C291.82 310.862 291.68 311.275 291.68 311.799C291.68 312.514 291.945 313.056 292.475 313.422C293.01 313.783 293.688 313.964 294.509 313.964ZM304.101 315.5V302.091H306.091V304.117H306.231C306.475 303.453 306.917 302.915 307.558 302.502C308.198 302.088 308.919 301.882 309.722 301.882C309.874 301.882 310.063 301.885 310.29 301.89C310.517 301.896 310.689 301.905 310.805 301.917V304.012C310.735 303.994 310.575 303.968 310.325 303.933C310.08 303.892 309.821 303.872 309.548 303.872C308.896 303.872 308.314 304.009 307.802 304.282C307.296 304.55 306.894 304.923 306.597 305.4C306.306 305.871 306.161 306.41 306.161 307.015V315.5H304.101ZM319.919 302.091V303.837H312.97V302.091H319.919ZM314.995 298.879H317.055V311.659C317.055 312.241 317.14 312.677 317.308 312.968C317.483 313.254 317.704 313.446 317.972 313.545C318.245 313.638 318.534 313.684 318.836 313.684C319.063 313.684 319.249 313.673 319.395 313.649C319.54 313.62 319.657 313.597 319.744 313.579L320.163 315.43C320.023 315.483 319.828 315.535 319.578 315.587C319.328 315.645 319.011 315.675 318.627 315.675C318.045 315.675 317.474 315.549 316.916 315.299C316.363 315.049 315.903 314.668 315.536 314.156C315.176 313.643 314.995 312.998 314.995 312.218V298.879ZM179.614 350.808C178.619 350.808 177.763 350.68 177.047 350.424C176.331 350.173 175.735 349.842 175.258 349.428C174.786 349.021 174.411 348.584 174.132 348.119L175.773 346.967C175.959 347.211 176.195 347.49 176.48 347.805C176.765 348.125 177.155 348.401 177.65 348.634C178.15 348.873 178.805 348.992 179.614 348.992C180.696 348.992 181.59 348.73 182.294 348.206C182.998 347.682 183.35 346.862 183.35 345.744V343.021H183.175C183.024 343.265 182.809 343.568 182.529 343.929C182.256 344.284 181.86 344.601 181.342 344.88C180.83 345.154 180.138 345.29 179.265 345.29C178.182 345.29 177.21 345.034 176.349 344.522C175.493 344.01 174.815 343.265 174.315 342.287C173.82 341.31 173.573 340.123 173.573 338.726C173.573 337.352 173.814 336.156 174.297 335.138C174.78 334.114 175.453 333.322 176.314 332.763C177.175 332.199 178.17 331.917 179.3 331.917C180.172 331.917 180.865 332.062 181.377 332.353C181.895 332.638 182.291 332.964 182.564 333.331C182.844 333.692 183.059 333.989 183.21 334.221H183.42V332.091H185.41V345.884C185.41 347.036 185.148 347.973 184.625 348.695C184.107 349.423 183.408 349.955 182.529 350.293C181.657 350.636 180.685 350.808 179.614 350.808ZM179.544 343.44C180.37 343.44 181.069 343.251 181.639 342.872C182.209 342.494 182.643 341.95 182.94 341.24C183.237 340.53 183.385 339.68 183.385 338.691C183.385 337.725 183.24 336.872 182.949 336.133C182.658 335.394 182.227 334.815 181.657 334.396C181.086 333.977 180.382 333.767 179.544 333.767C178.671 333.767 177.944 333.989 177.362 334.431C176.785 334.873 176.352 335.467 176.061 336.212C175.776 336.957 175.633 337.783 175.633 338.691C175.633 339.622 175.779 340.446 176.07 341.161C176.366 341.871 176.803 342.43 177.379 342.837C177.961 343.239 178.683 343.44 179.544 343.44ZM191.242 327.622V345.5H189.181V327.622H191.242ZM200.462 345.779C199.252 345.779 198.19 345.491 197.276 344.915C196.368 344.339 195.658 343.533 195.146 342.497C194.64 341.461 194.387 340.251 194.387 338.865C194.387 337.469 194.64 336.249 195.146 335.208C195.658 334.166 196.368 333.357 197.276 332.781C198.19 332.205 199.252 331.917 200.462 331.917C201.673 331.917 202.732 332.205 203.64 332.781C204.554 333.357 205.264 334.166 205.77 335.208C206.282 336.249 206.538 337.469 206.538 338.865C206.538 340.251 206.282 341.461 205.77 342.497C205.264 343.533 204.554 344.339 203.64 344.915C202.732 345.491 201.673 345.779 200.462 345.779ZM200.462 343.929C201.382 343.929 202.138 343.693 202.732 343.222C203.326 342.75 203.765 342.13 204.05 341.362C204.335 340.594 204.478 339.762 204.478 338.865C204.478 337.969 204.335 337.134 204.05 336.36C203.765 335.586 203.326 334.96 202.732 334.483C202.138 334.006 201.382 333.767 200.462 333.767C199.543 333.767 198.786 334.006 198.193 334.483C197.599 334.96 197.16 335.586 196.874 336.36C196.589 337.134 196.447 337.969 196.447 338.865C196.447 339.762 196.589 340.594 196.874 341.362C197.16 342.13 197.599 342.75 198.193 343.222C198.786 343.693 199.543 343.929 200.462 343.929ZM209.962 345.5V327.622H212.023V334.221H212.197C212.348 333.989 212.558 333.692 212.826 333.331C213.099 332.964 213.489 332.638 213.995 332.353C214.508 332.062 215.2 331.917 216.073 331.917C217.202 331.917 218.197 332.199 219.059 332.763C219.92 333.328 220.592 334.128 221.075 335.164C221.558 336.2 221.8 337.422 221.8 338.831C221.8 340.251 221.558 341.481 221.075 342.523C220.592 343.559 219.923 344.362 219.067 344.933C218.212 345.497 217.225 345.779 216.108 345.779C215.247 345.779 214.557 345.637 214.039 345.352C213.521 345.061 213.123 344.732 212.843 344.365C212.564 343.993 212.348 343.684 212.197 343.44H211.953V345.5H209.962ZM211.988 338.796C211.988 339.808 212.136 340.702 212.433 341.476C212.73 342.244 213.163 342.846 213.734 343.283C214.304 343.713 215.002 343.929 215.829 343.929C216.69 343.929 217.409 343.702 217.985 343.248C218.567 342.788 219.003 342.171 219.294 341.397C219.591 340.617 219.74 339.75 219.74 338.796C219.74 337.853 219.594 337.003 219.303 336.247C219.018 335.484 218.584 334.882 218.002 334.44C217.426 333.991 216.702 333.767 215.829 333.767C214.991 333.767 214.286 333.98 213.716 334.405C213.146 334.824 212.715 335.411 212.424 336.168C212.133 336.919 211.988 337.795 211.988 338.796ZM228.897 345.814C228.047 345.814 227.276 345.654 226.584 345.334C225.891 345.008 225.341 344.54 224.934 343.929C224.526 343.312 224.323 342.567 224.323 341.694C224.323 340.926 224.474 340.303 224.777 339.826C225.079 339.343 225.484 338.964 225.99 338.691C226.496 338.417 227.055 338.214 227.666 338.08C228.283 337.94 228.903 337.83 229.525 337.748C230.34 337.643 231.001 337.565 231.507 337.512C232.019 337.454 232.392 337.358 232.625 337.224C232.863 337.09 232.982 336.858 232.982 336.526V336.456C232.982 335.595 232.747 334.926 232.275 334.448C231.81 333.971 231.103 333.732 230.154 333.732C229.17 333.732 228.399 333.948 227.841 334.378C227.282 334.809 226.889 335.269 226.662 335.758L224.707 335.059C225.056 334.245 225.521 333.61 226.103 333.156C226.691 332.697 227.331 332.376 228.024 332.196C228.722 332.01 229.409 331.917 230.084 331.917C230.515 331.917 231.01 331.969 231.568 332.074C232.133 332.173 232.677 332.379 233.201 332.694C233.73 333.008 234.17 333.482 234.519 334.117C234.868 334.751 235.043 335.601 235.043 336.666V345.5H232.982V343.684H232.878C232.738 343.975 232.505 344.287 232.179 344.618C231.853 344.95 231.42 345.232 230.879 345.465C230.337 345.698 229.677 345.814 228.897 345.814ZM229.211 343.964C230.026 343.964 230.713 343.804 231.271 343.483C231.836 343.163 232.261 342.75 232.546 342.244C232.837 341.738 232.982 341.205 232.982 340.646V338.761C232.895 338.865 232.703 338.962 232.406 339.049C232.115 339.13 231.778 339.203 231.394 339.267C231.015 339.325 230.646 339.378 230.285 339.424C229.93 339.465 229.642 339.5 229.421 339.529C228.885 339.599 228.385 339.712 227.919 339.869C227.459 340.021 227.087 340.251 226.802 340.559C226.522 340.862 226.383 341.275 226.383 341.799C226.383 342.514 226.648 343.056 227.177 343.422C227.713 343.783 228.391 343.964 229.211 343.964ZM240.863 327.622V345.5H238.803V327.622H240.863ZM246.697 327.622V345.5H244.636V327.622H246.697ZM251.797 350.528C251.448 350.528 251.136 350.499 250.863 350.441C250.589 350.389 250.4 350.336 250.295 350.284L250.819 348.468C251.32 348.596 251.762 348.643 252.146 348.608C252.53 348.573 252.871 348.401 253.168 348.093C253.47 347.79 253.747 347.298 253.997 346.617L254.381 345.57L249.423 332.091H251.657L255.359 342.776H255.498L259.2 332.091H261.434L255.743 347.455C255.487 348.148 255.17 348.721 254.791 349.175C254.413 349.635 253.974 349.975 253.473 350.197C252.978 350.418 252.42 350.528 251.797 350.528Z" fill="white"/>
<path d="M152.356 253.567C149.548 250.949 146.658 248.414 143.993 245.655C142.5 244.115 142.785 241.734 144.218 240.099C144.443 239.85 144.692 239.614 144.929 239.377C162.767 221.538 180.606 203.699 198.41 185.836C199.262 184.984 200.068 184.77 201.217 184.948C203.977 185.374 206.76 185.682 209.544 185.967C210.35 186.05 210.575 186.346 210.646 187.116C210.954 190.041 211.404 192.955 211.664 195.881C211.724 196.533 211.451 197.433 211.001 197.883C193.032 215.923 175.015 233.94 156.999 251.921C156.336 252.584 155.447 253.01 154.665 253.555H152.344L152.356 253.567Z" fill="#FD1640"/>
<path d="M291.559 174.667C289.463 177.806 288.302 178.22 284.547 177.19C282.225 176.55 279.892 175.982 277.606 175.271C274.431 174.276 273.413 170.592 275.568 168.199C276.836 166.79 278.447 166.506 280.188 166.932C282.794 167.583 285.376 168.365 287.982 169.005C289.723 169.431 290.73 170.604 291.571 172.049V174.655L291.559 174.667Z" fill="#FD1640"/>
<path d="M211.546 153.073C208.454 145.859 205.362 138.74 202.377 131.574C201.916 130.472 201.631 129.098 201.856 127.961C202.401 125.213 205.28 123.981 208.039 125.154C214.424 127.866 220.797 130.626 227.169 133.351C228.093 133.742 229.017 134.121 230.036 134.547C232.784 130.875 235.497 127.251 238.221 123.614C240.246 120.902 242.26 118.189 244.298 115.488C245.636 113.712 247.401 113.001 249.213 113.569C251.227 114.209 252.198 115.642 252.435 117.739C253.264 125.071 254.188 132.403 255.017 139.747C255.16 140.979 255.669 141.429 256.865 141.56C264.245 142.401 271.624 143.289 279.004 144.177C281.1 144.426 282.51 145.575 283.019 147.399C283.517 149.164 282.865 150.965 281.172 152.22C275.036 156.828 268.876 161.424 262.729 166.032C262.539 166.174 262.35 166.328 262.053 166.565C262.255 167.074 262.456 167.595 262.681 168.105C265.583 174.892 268.509 181.655 271.399 188.455C272.596 191.274 271.47 194.069 268.722 194.685C267.597 194.934 266.211 194.685 265.121 194.235C258.227 191.368 251.369 188.372 244.511 185.422C244.215 185.292 243.895 185.197 243.539 185.055C239.05 191.049 234.596 196.995 230.143 202.953C229.799 203.415 229.467 203.901 229.1 204.351C227.904 205.808 226.399 206.53 224.492 206.045C222.55 205.547 221.413 204.209 221.164 202.266C220.323 195.609 219.506 188.952 218.807 182.283C218.368 178.149 218.451 178.22 214.246 177.77C207.625 177.059 201.015 176.242 194.406 175.437C192.416 175.2 190.971 173.92 190.52 172.037C190.047 170.071 190.817 168.543 192.38 167.37C198.717 162.62 205.066 157.882 211.546 153.037V153.073Z" fill="#FD1640"/>
<path d="M278.305 123.058C277.819 124.018 277.511 125.155 276.812 125.925C274.834 128.093 272.726 130.154 270.594 132.191C268.77 133.932 266.187 133.873 264.47 132.191C262.717 130.462 262.681 127.832 264.47 125.972C266.472 123.888 268.521 121.838 270.617 119.836C271.991 118.51 273.65 118.226 275.427 118.96C277.026 119.623 278.044 121.222 278.293 123.082L278.305 123.058Z" fill="#FD1640"/>
<path d="M199.084 148.548C199.108 151.415 196.561 153.488 193.683 152.801C190.828 152.126 187.997 151.344 185.178 150.515C182.809 149.828 181.506 147.435 182.157 145.184C182.844 142.78 185.071 141.501 187.559 142.128C190.271 142.804 192.972 143.514 195.661 144.261C197.864 144.876 199.072 146.44 199.096 148.537L199.084 148.548Z" fill="#FD1640"/>
<path d="M247.981 197.529C249.948 197.529 251.559 198.559 252.139 200.49C253.039 203.487 253.857 206.507 254.591 209.552C255.088 211.648 253.631 213.792 251.476 214.456C249.438 215.072 247.046 214.124 246.359 212.051C245.316 208.9 244.404 205.69 243.776 202.445C243.255 199.768 245.352 197.552 247.981 197.541V197.529Z" fill="#FD1640"/>
<path d="M225.534 122.146C223.616 122.146 221.957 121.02 221.4 119.137C220.548 116.235 219.754 113.297 219.055 110.348C218.487 107.943 219.955 105.681 222.253 105.124C224.48 104.579 226.766 105.87 227.453 108.192C228.271 110.964 229.041 113.747 229.716 116.555C230.438 119.563 228.436 122.157 225.534 122.146Z" fill="#FD1640"/>
<defs>
<linearGradient id="paint0_linear_3074_842" x1="6.23643" y1="65.4922" x2="6.23643" y2="362.165" gradientUnits="userSpaceOnUse">
<stop stop-color="#DC062D"/>
<stop offset="1" stop-color="#DC062D" stop-opacity="0"/>
</linearGradient>
<linearGradient id="paint1_linear_3074_842" x1="429.131" y1="65.4922" x2="429.131" y2="362.165" gradientUnits="userSpaceOnUse">
<stop stop-color="#DC062D"/>
<stop offset="1" stop-color="#DC062D" stop-opacity="0"/>
</linearGradient>
<linearGradient id="paint2_linear_3074_842" x1="217.144" y1="4" x2="217.144" y2="421.5" gradientUnits="userSpaceOnUse">
<stop stop-color="#FD1640"/>
<stop offset="1" stop-color="#FB133D"/>
</linearGradient>
</defs>
</svg>
