<svg width="434" height="425" viewBox="0 0 434 425" fill="none" xmlns="http://www.w3.org/2000/svg">
<path d="M3 362.165V65.4922L9.47287 73.0439V355.692L3 362.165Z" fill="url(#paint0_linear_3074_840)"/>
<path d="M432.367 362.165V65.4922L425.894 73.0439V355.692L432.367 362.165Z" fill="url(#paint1_linear_3074_840)"/>
<path d="M430.209 26.655V54.7041L416.184 64.4134V361.087L428.051 372.953V398.845L405.396 421.5H278.096L272.702 416.106H159.427L154.033 421.5H28.8908L5.15694 397.766V375.111L17.0239 363.244V65.4922L4.07812 52.5465V26.655L26.7332 4H155.112L160.506 9.39406H271.623L275.939 4H406.475L430.209 26.655Z" stroke="url(#paint2_linear_3074_840)" stroke-width="6.47287"/>
<path d="M116.706 315.5V297.622H127.426V299.542H118.871V305.583H126.623V307.504H118.871V315.5H116.706ZM135.318 315.779C134.107 315.779 133.045 315.491 132.131 314.915C131.223 314.339 130.513 313.533 130.001 312.497C129.495 311.461 129.242 310.251 129.242 308.865C129.242 307.469 129.495 306.249 130.001 305.208C130.513 304.166 131.223 303.357 132.131 302.781C133.045 302.205 134.107 301.917 135.318 301.917C136.528 301.917 137.587 302.205 138.495 302.781C139.409 303.357 140.119 304.166 140.625 305.208C141.137 306.249 141.393 307.469 141.393 308.865C141.393 310.251 141.137 311.461 140.625 312.497C140.119 313.533 139.409 314.339 138.495 314.915C137.587 315.491 136.528 315.779 135.318 315.779ZM135.318 313.929C136.237 313.929 136.994 313.693 137.587 313.222C138.181 312.75 138.62 312.13 138.905 311.362C139.191 310.594 139.333 309.762 139.333 308.865C139.333 307.969 139.191 307.134 138.905 306.36C138.62 305.586 138.181 304.96 137.587 304.483C136.994 304.006 136.237 303.767 135.318 303.767C134.398 303.767 133.641 304.006 133.048 304.483C132.454 304.96 132.015 305.586 131.73 306.36C131.445 307.134 131.302 307.969 131.302 308.865C131.302 309.762 131.445 310.594 131.73 311.362C132.015 312.13 132.454 312.75 133.048 313.222C133.641 313.693 134.398 313.929 135.318 313.929ZM154.036 305.094L152.185 305.618C152.069 305.31 151.897 305.01 151.67 304.719C151.449 304.422 151.147 304.178 150.762 303.986C150.378 303.794 149.887 303.698 149.287 303.698C148.467 303.698 147.783 303.887 147.236 304.265C146.694 304.637 146.424 305.112 146.424 305.688C146.424 306.2 146.61 306.605 146.983 306.901C147.355 307.198 147.937 307.445 148.728 307.643L150.719 308.132C151.918 308.423 152.811 308.868 153.399 309.468C153.987 310.061 154.281 310.827 154.281 311.764C154.281 312.532 154.059 313.219 153.617 313.824C153.181 314.429 152.57 314.906 151.784 315.256C150.998 315.605 150.084 315.779 149.043 315.779C147.675 315.779 146.543 315.483 145.647 314.889C144.751 314.295 144.183 313.428 143.945 312.287L145.9 311.799C146.086 312.52 146.438 313.062 146.956 313.422C147.48 313.783 148.164 313.964 149.008 313.964C149.968 313.964 150.73 313.76 151.295 313.353C151.865 312.939 152.15 312.445 152.15 311.868C152.15 311.403 151.988 311.013 151.662 310.699C151.336 310.379 150.835 310.14 150.16 309.983L147.925 309.459C146.697 309.168 145.795 308.717 145.219 308.106C144.649 307.489 144.364 306.718 144.364 305.793C144.364 305.036 144.576 304.367 145.001 303.785C145.432 303.203 146.016 302.746 146.756 302.414C147.5 302.083 148.344 301.917 149.287 301.917C150.614 301.917 151.656 302.208 152.412 302.79C153.175 303.372 153.716 304.14 154.036 305.094ZM163.213 302.091V303.837H156.264V302.091H163.213ZM158.29 298.879H160.35V311.659C160.35 312.241 160.434 312.677 160.603 312.968C160.778 313.254 160.999 313.446 161.266 313.545C161.54 313.638 161.828 313.684 162.131 313.684C162.358 313.684 162.544 313.673 162.689 313.649C162.835 313.62 162.951 313.597 163.039 313.579L163.458 315.43C163.318 315.483 163.123 315.535 162.873 315.587C162.622 315.645 162.305 315.675 161.921 315.675C161.339 315.675 160.769 315.549 160.21 315.299C159.657 315.049 159.197 314.668 158.831 314.156C158.47 313.643 158.29 312.998 158.29 312.218V298.879ZM171.79 315.779C170.498 315.779 169.384 315.494 168.447 314.924C167.515 314.348 166.797 313.545 166.29 312.514C165.79 311.479 165.54 310.274 165.54 308.9C165.54 307.527 165.79 306.316 166.29 305.269C166.797 304.215 167.501 303.395 168.403 302.807C169.311 302.213 170.37 301.917 171.58 301.917C172.279 301.917 172.968 302.033 173.649 302.266C174.33 302.499 174.95 302.877 175.509 303.401C176.067 303.919 176.513 304.605 176.844 305.461C177.176 306.316 177.342 307.37 177.342 308.621V309.494H167.006V307.713H175.247C175.247 306.957 175.096 306.282 174.793 305.688C174.496 305.094 174.071 304.626 173.518 304.282C172.971 303.939 172.325 303.767 171.58 303.767C170.76 303.767 170.05 303.971 169.45 304.378C168.857 304.78 168.4 305.304 168.08 305.95C167.76 306.596 167.6 307.288 167.6 308.027V309.215C167.6 310.227 167.774 311.086 168.124 311.79C168.479 312.488 168.97 313.021 169.599 313.387C170.227 313.748 170.958 313.929 171.79 313.929C172.331 313.929 172.82 313.853 173.257 313.702C173.699 313.545 174.08 313.312 174.4 313.003C174.72 312.689 174.968 312.299 175.142 311.834L177.133 312.392C176.923 313.067 176.571 313.661 176.076 314.173C175.582 314.679 174.97 315.075 174.243 315.36C173.516 315.64 172.698 315.779 171.79 315.779ZM180.476 315.5V302.091H182.466V304.117H182.606C182.85 303.453 183.293 302.915 183.933 302.502C184.573 302.088 185.295 301.882 186.098 301.882C186.249 301.882 186.438 301.885 186.665 301.89C186.892 301.896 187.064 301.905 187.18 301.917V304.012C187.11 303.994 186.95 303.968 186.7 303.933C186.456 303.892 186.197 303.872 185.923 303.872C185.271 303.872 184.689 304.009 184.177 304.282C183.671 304.55 183.269 304.923 182.973 305.4C182.682 305.871 182.536 306.41 182.536 307.015V315.5H180.476ZM189.622 315.5V302.091H191.683V315.5H189.622ZM190.67 299.856C190.268 299.856 189.922 299.72 189.631 299.446C189.346 299.173 189.203 298.844 189.203 298.46C189.203 298.076 189.346 297.747 189.631 297.473C189.922 297.2 190.268 297.063 190.67 297.063C191.072 297.063 191.415 297.2 191.7 297.473C191.991 297.747 192.137 298.076 192.137 298.46C192.137 298.844 191.991 299.173 191.7 299.446C191.415 299.72 191.072 299.856 190.67 299.856ZM197.516 307.434V315.5H195.456V302.091H197.446V304.186H197.621C197.935 303.505 198.412 302.958 199.053 302.545C199.693 302.126 200.519 301.917 201.532 301.917C202.44 301.917 203.234 302.103 203.915 302.475C204.596 302.842 205.126 303.401 205.504 304.151C205.882 304.896 206.071 305.839 206.071 306.98V315.5H204.011V307.12C204.011 306.066 203.738 305.246 203.19 304.658C202.643 304.064 201.893 303.767 200.938 303.767C200.281 303.767 199.693 303.91 199.175 304.195C198.663 304.48 198.258 304.896 197.961 305.443C197.665 305.991 197.516 306.654 197.516 307.434ZM215.248 320.808C214.253 320.808 213.398 320.68 212.682 320.424C211.966 320.173 211.369 319.842 210.892 319.428C210.421 319.021 210.045 318.584 209.766 318.119L211.407 316.967C211.593 317.211 211.829 317.49 212.114 317.805C212.4 318.125 212.789 318.401 213.284 318.634C213.785 318.873 214.439 318.992 215.248 318.992C216.331 318.992 217.224 318.73 217.928 318.206C218.632 317.682 218.985 316.862 218.985 315.744V313.021H218.81C218.659 313.265 218.443 313.568 218.164 313.929C217.89 314.284 217.495 314.601 216.977 314.88C216.465 315.154 215.772 315.29 214.899 315.29C213.817 315.29 212.845 315.034 211.983 314.522C211.128 314.01 210.45 313.265 209.949 312.287C209.455 311.31 209.207 310.123 209.207 308.726C209.207 307.352 209.449 306.156 209.932 305.138C210.415 304.114 211.087 303.322 211.948 302.763C212.81 302.199 213.805 301.917 214.934 301.917C215.807 301.917 216.5 302.062 217.012 302.353C217.53 302.638 217.925 302.964 218.199 303.331C218.478 303.692 218.694 303.989 218.845 304.221H219.054V302.091H221.045V315.884C221.045 317.036 220.783 317.973 220.259 318.695C219.741 319.423 219.043 319.955 218.164 320.293C217.291 320.636 216.319 320.808 215.248 320.808ZM215.178 313.44C216.005 313.44 216.703 313.251 217.274 312.872C217.844 312.494 218.277 311.95 218.574 311.24C218.871 310.53 219.019 309.68 219.019 308.691C219.019 307.725 218.874 306.872 218.583 306.133C218.292 305.394 217.861 304.815 217.291 304.396C216.721 303.977 216.016 303.767 215.178 303.767C214.305 303.767 213.578 303.989 212.996 304.431C212.42 304.873 211.986 305.467 211.695 306.212C211.41 306.957 211.268 307.783 211.268 308.691C211.268 309.622 211.413 310.446 211.704 311.161C212.001 311.871 212.437 312.43 213.013 312.837C213.595 313.239 214.317 313.44 215.178 313.44ZM235.676 315.814C234.826 315.814 234.055 315.654 233.362 315.334C232.67 315.008 232.12 314.54 231.712 313.929C231.305 313.312 231.101 312.567 231.101 311.694C231.101 310.926 231.253 310.303 231.555 309.826C231.858 309.343 232.262 308.964 232.769 308.691C233.275 308.417 233.834 308.214 234.445 308.08C235.062 307.94 235.681 307.83 236.304 307.748C237.119 307.643 237.779 307.565 238.286 307.512C238.798 307.454 239.17 307.358 239.403 307.224C239.642 307.09 239.761 306.858 239.761 306.526V306.456C239.761 305.595 239.525 304.926 239.054 304.448C238.588 303.971 237.881 303.732 236.933 303.732C235.949 303.732 235.178 303.948 234.619 304.378C234.061 304.809 233.668 305.269 233.441 305.758L231.485 305.059C231.835 304.245 232.3 303.61 232.882 303.156C233.47 302.697 234.11 302.376 234.803 302.196C235.501 302.01 236.188 301.917 236.863 301.917C237.294 301.917 237.788 301.969 238.347 302.074C238.911 302.173 239.456 302.379 239.979 302.694C240.509 303.008 240.948 303.482 241.298 304.117C241.647 304.751 241.821 305.601 241.821 306.666V315.5H239.761V313.684H239.656C239.517 313.975 239.284 314.287 238.958 314.618C238.632 314.95 238.198 315.232 237.657 315.465C237.116 315.698 236.455 315.814 235.676 315.814ZM235.99 313.964C236.805 313.964 237.491 313.804 238.05 313.483C238.615 313.163 239.039 312.75 239.325 312.244C239.616 311.738 239.761 311.205 239.761 310.646V308.761C239.674 308.865 239.482 308.962 239.185 309.049C238.894 309.13 238.556 309.203 238.172 309.267C237.794 309.325 237.424 309.378 237.064 309.424C236.709 309.465 236.421 309.5 236.199 309.529C235.664 309.599 235.163 309.712 234.698 309.869C234.238 310.021 233.866 310.251 233.581 310.559C233.301 310.862 233.161 311.275 233.161 311.799C233.161 312.514 233.426 313.056 233.956 313.422C234.491 313.783 235.169 313.964 235.99 313.964ZM257.908 320.808C256.913 320.808 256.057 320.68 255.341 320.424C254.625 320.173 254.029 319.842 253.552 319.428C253.08 319.021 252.705 318.584 252.426 318.119L254.067 316.967C254.253 317.211 254.489 317.49 254.774 317.805C255.059 318.125 255.449 318.401 255.944 318.634C256.444 318.873 257.099 318.992 257.908 318.992C258.99 318.992 259.884 318.73 260.588 318.206C261.292 317.682 261.644 316.862 261.644 315.744V313.021H261.47C261.318 313.265 261.103 313.568 260.824 313.929C260.55 314.284 260.154 314.601 259.636 314.88C259.124 315.154 258.432 315.29 257.559 315.29C256.476 315.29 255.504 315.034 254.643 314.522C253.787 314.01 253.109 313.265 252.609 312.287C252.114 311.31 251.867 310.123 251.867 308.726C251.867 307.352 252.108 306.156 252.591 305.138C253.075 304.114 253.747 303.322 254.608 302.763C255.469 302.199 256.465 301.917 257.594 301.917C258.467 301.917 259.159 302.062 259.671 302.353C260.189 302.638 260.585 302.964 260.858 303.331C261.138 303.692 261.353 303.989 261.504 304.221H261.714V302.091H263.704V315.884C263.704 317.036 263.442 317.973 262.919 318.695C262.401 319.423 261.702 319.955 260.824 320.293C259.951 320.636 258.979 320.808 257.908 320.808ZM257.838 313.44C258.664 313.44 259.363 313.251 259.933 312.872C260.503 312.494 260.937 311.95 261.234 311.24C261.531 310.53 261.679 309.68 261.679 308.691C261.679 307.725 261.534 306.872 261.243 306.133C260.952 305.394 260.521 304.815 259.951 304.396C259.38 303.977 258.676 303.767 257.838 303.767C256.965 303.767 256.238 303.989 255.656 304.431C255.079 304.873 254.646 305.467 254.355 306.212C254.07 306.957 253.927 307.783 253.927 308.691C253.927 309.622 254.073 310.446 254.364 311.161C254.66 311.871 255.097 312.43 255.673 312.837C256.255 313.239 256.977 313.44 257.838 313.44ZM269.536 297.622V315.5H267.476V297.622H269.536ZM278.756 315.779C277.546 315.779 276.484 315.491 275.57 314.915C274.662 314.339 273.952 313.533 273.44 312.497C272.934 311.461 272.681 310.251 272.681 308.865C272.681 307.469 272.934 306.249 273.44 305.208C273.952 304.166 274.662 303.357 275.57 302.781C276.484 302.205 277.546 301.917 278.756 301.917C279.967 301.917 281.026 302.205 281.934 302.781C282.848 303.357 283.558 304.166 284.064 305.208C284.576 306.249 284.832 307.469 284.832 308.865C284.832 310.251 284.576 311.461 284.064 312.497C283.558 313.533 282.848 314.339 281.934 314.915C281.026 315.491 279.967 315.779 278.756 315.779ZM278.756 313.929C279.676 313.929 280.432 313.693 281.026 313.222C281.62 312.75 282.059 312.13 282.344 311.362C282.629 310.594 282.772 309.762 282.772 308.865C282.772 307.969 282.629 307.134 282.344 306.36C282.059 305.586 281.62 304.96 281.026 304.483C280.432 304.006 279.676 303.767 278.756 303.767C277.837 303.767 277.08 304.006 276.487 304.483C275.893 304.96 275.454 305.586 275.168 306.36C274.883 307.134 274.741 307.969 274.741 308.865C274.741 309.762 274.883 310.594 275.168 311.362C275.454 312.13 275.893 312.75 276.487 313.222C277.08 313.693 277.837 313.929 278.756 313.929ZM288.256 315.5V297.622H290.317V304.221H290.491C290.642 303.989 290.852 303.692 291.12 303.331C291.393 302.964 291.783 302.638 292.289 302.353C292.802 302.062 293.494 301.917 294.367 301.917C295.496 301.917 296.491 302.199 297.353 302.763C298.214 303.328 298.886 304.128 299.369 305.164C299.852 306.2 300.094 307.422 300.094 308.831C300.094 310.251 299.852 311.481 299.369 312.523C298.886 313.559 298.217 314.362 297.361 314.933C296.506 315.497 295.519 315.779 294.402 315.779C293.541 315.779 292.851 315.637 292.333 315.352C291.815 315.061 291.417 314.732 291.137 314.365C290.858 313.993 290.642 313.684 290.491 313.44H290.247V315.5H288.256ZM290.282 308.796C290.282 309.808 290.43 310.702 290.727 311.476C291.024 312.244 291.457 312.846 292.028 313.283C292.598 313.713 293.296 313.929 294.123 313.929C294.984 313.929 295.703 313.702 296.279 313.248C296.861 312.788 297.297 312.171 297.588 311.397C297.885 310.617 298.034 309.75 298.034 308.796C298.034 307.853 297.888 307.003 297.597 306.247C297.312 305.484 296.878 304.882 296.296 304.44C295.72 303.991 294.996 303.767 294.123 303.767C293.285 303.767 292.58 303.98 292.01 304.405C291.44 304.824 291.009 305.411 290.718 306.168C290.427 306.919 290.282 307.795 290.282 308.796ZM307.191 315.814C306.341 315.814 305.57 315.654 304.878 315.334C304.185 315.008 303.635 314.54 303.228 313.929C302.82 313.312 302.617 312.567 302.617 311.694C302.617 310.926 302.768 310.303 303.071 309.826C303.373 309.343 303.778 308.964 304.284 308.691C304.79 308.417 305.349 308.214 305.96 308.08C306.577 307.94 307.197 307.83 307.82 307.748C308.634 307.643 309.295 307.565 309.801 307.512C310.313 307.454 310.686 307.358 310.919 307.224C311.157 307.09 311.276 306.858 311.276 306.526V306.456C311.276 305.595 311.041 304.926 310.569 304.448C310.104 303.971 309.397 303.732 308.448 303.732C307.464 303.732 306.693 303.948 306.135 304.378C305.576 304.809 305.183 305.269 304.956 305.758L303.001 305.059C303.35 304.245 303.816 303.61 304.397 303.156C304.985 302.697 305.625 302.376 306.318 302.196C307.016 302.01 307.703 301.917 308.378 301.917C308.809 301.917 309.304 301.969 309.862 302.074C310.427 302.173 310.971 302.379 311.495 302.694C312.024 303.008 312.464 303.482 312.813 304.117C313.162 304.751 313.337 305.601 313.337 306.666V315.5H311.276V313.684H311.172C311.032 313.975 310.799 314.287 310.473 314.618C310.147 314.95 309.714 315.232 309.173 315.465C308.631 315.698 307.971 315.814 307.191 315.814ZM307.505 313.964C308.32 313.964 309.007 313.804 309.565 313.483C310.13 313.163 310.555 312.75 310.84 312.244C311.131 311.738 311.276 311.205 311.276 310.646V308.761C311.189 308.865 310.997 308.962 310.7 309.049C310.409 309.13 310.072 309.203 309.688 309.267C309.309 309.325 308.94 309.378 308.579 309.424C308.224 309.465 307.936 309.5 307.715 309.529C307.179 309.599 306.679 309.712 306.213 309.869C305.753 310.021 305.381 310.251 305.096 310.559C304.817 310.862 304.677 311.275 304.677 311.799C304.677 312.514 304.942 313.056 305.471 313.422C306.007 313.783 306.685 313.964 307.505 313.964ZM319.157 297.622V315.5H317.097V297.622H319.157ZM161.005 345.779C159.747 345.779 158.665 345.483 157.757 344.889C156.849 344.295 156.151 343.478 155.662 342.436C155.173 341.394 154.929 340.204 154.929 338.865C154.929 337.504 155.179 336.302 155.679 335.26C156.186 334.213 156.89 333.395 157.792 332.807C158.7 332.213 159.759 331.917 160.97 331.917C161.912 331.917 162.762 332.091 163.519 332.44C164.275 332.79 164.895 333.279 165.378 333.907C165.861 334.536 166.161 335.269 166.277 336.107H164.217C164.06 335.496 163.711 334.955 163.169 334.483C162.634 334.006 161.912 333.767 161.005 333.767C160.201 333.767 159.497 333.977 158.892 334.396C158.293 334.809 157.824 335.394 157.486 336.151C157.155 336.901 156.989 337.783 156.989 338.796C156.989 339.832 157.152 340.734 157.478 341.502C157.809 342.27 158.275 342.867 158.874 343.291C159.48 343.716 160.19 343.929 161.005 343.929C161.54 343.929 162.026 343.836 162.462 343.649C162.899 343.463 163.268 343.195 163.571 342.846C163.874 342.497 164.089 342.078 164.217 341.589H166.277C166.161 342.381 165.873 343.094 165.413 343.728C164.959 344.356 164.357 344.857 163.606 345.229C162.861 345.596 161.994 345.779 161.005 345.779ZM174.736 345.779C173.526 345.779 172.464 345.491 171.55 344.915C170.642 344.339 169.932 343.533 169.42 342.497C168.914 341.461 168.66 340.251 168.66 338.865C168.66 337.469 168.914 336.249 169.42 335.208C169.932 334.166 170.642 333.357 171.55 332.781C172.464 332.205 173.526 331.917 174.736 331.917C175.947 331.917 177.006 332.205 177.914 332.781C178.828 333.357 179.538 334.166 180.044 335.208C180.556 336.249 180.812 337.469 180.812 338.865C180.812 340.251 180.556 341.461 180.044 342.497C179.538 343.533 178.828 344.339 177.914 344.915C177.006 345.491 175.947 345.779 174.736 345.779ZM174.736 343.929C175.656 343.929 176.412 343.693 177.006 343.222C177.6 342.75 178.039 342.13 178.324 341.362C178.609 340.594 178.752 339.762 178.752 338.865C178.752 337.969 178.609 337.134 178.324 336.36C178.039 335.586 177.6 334.96 177.006 334.483C176.412 334.006 175.656 333.767 174.736 333.767C173.817 333.767 173.06 334.006 172.467 334.483C171.873 334.96 171.434 335.586 171.148 336.36C170.863 337.134 170.721 337.969 170.721 338.865C170.721 339.762 170.863 340.594 171.148 341.362C171.434 342.13 171.873 342.75 172.467 343.222C173.06 343.693 173.817 343.929 174.736 343.929ZM183.957 345.5V332.091H185.947V334.186H186.122C186.401 333.471 186.852 332.915 187.475 332.519C188.098 332.117 188.846 331.917 189.718 331.917C190.603 331.917 191.339 332.117 191.927 332.519C192.521 332.915 192.983 333.471 193.315 334.186H193.455C193.798 333.494 194.313 332.944 195 332.536C195.687 332.123 196.51 331.917 197.47 331.917C198.669 331.917 199.65 332.292 200.412 333.043C201.175 333.788 201.556 334.949 201.556 336.526V345.5H199.496V336.526C199.496 335.537 199.225 334.829 198.684 334.405C198.143 333.98 197.505 333.767 196.772 333.767C195.829 333.767 195.099 334.053 194.581 334.623C194.063 335.187 193.804 335.903 193.804 336.77V345.5H191.709V336.316C191.709 335.554 191.461 334.94 190.967 334.474C190.472 334.003 189.835 333.767 189.055 333.767C188.52 333.767 188.019 333.91 187.554 334.195C187.094 334.48 186.721 334.876 186.436 335.382C186.157 335.883 186.017 336.462 186.017 337.12V345.5H183.957ZM205.323 345.5V332.091H207.313V334.186H207.488C207.767 333.471 208.218 332.915 208.841 332.519C209.463 332.117 210.211 331.917 211.084 331.917C211.969 331.917 212.705 332.117 213.293 332.519C213.886 332.915 214.349 333.471 214.681 334.186H214.821C215.164 333.494 215.679 332.944 216.366 332.536C217.052 332.123 217.876 331.917 218.836 331.917C220.035 331.917 221.016 332.292 221.778 333.043C222.54 333.788 222.922 334.949 222.922 336.526V345.5H220.861V336.526C220.861 335.537 220.591 334.829 220.05 334.405C219.508 333.98 218.871 333.767 218.138 333.767C217.195 333.767 216.465 334.053 215.947 334.623C215.429 335.187 215.17 335.903 215.17 336.77V345.5H213.075V336.316C213.075 335.554 212.827 334.94 212.333 334.474C211.838 334.003 211.201 333.767 210.421 333.767C209.885 333.767 209.385 333.91 208.919 334.195C208.46 334.48 208.087 334.876 207.802 335.382C207.523 335.883 207.383 336.462 207.383 337.12V345.5H205.323ZM235.139 340.018V332.091H237.199V345.5H235.139V343.23H234.999C234.685 343.911 234.196 344.49 233.532 344.967C232.869 345.439 232.031 345.675 231.018 345.675C230.18 345.675 229.435 345.491 228.784 345.125C228.132 344.752 227.62 344.193 227.247 343.449C226.875 342.698 226.688 341.752 226.688 340.611V332.091H228.749V340.472C228.749 341.449 229.022 342.229 229.569 342.811C230.122 343.393 230.826 343.684 231.682 343.684C232.194 343.684 232.715 343.553 233.244 343.291C233.78 343.03 234.228 342.628 234.589 342.087C234.955 341.545 235.139 340.856 235.139 340.018ZM243.033 337.434V345.5H240.972V332.091H242.963V334.186H243.137C243.452 333.505 243.929 332.958 244.569 332.545C245.209 332.126 246.036 331.917 247.048 331.917C247.956 331.917 248.75 332.103 249.431 332.475C250.112 332.842 250.642 333.401 251.02 334.151C251.398 334.896 251.588 335.839 251.588 336.98V345.5H249.527V337.12C249.527 336.066 249.254 335.246 248.707 334.658C248.16 334.064 247.409 333.767 246.455 333.767C245.797 333.767 245.209 333.91 244.691 334.195C244.179 334.48 243.775 334.896 243.478 335.443C243.181 335.991 243.033 336.654 243.033 337.434ZM255.352 345.5V332.091H257.412V345.5H255.352ZM256.4 329.856C255.998 329.856 255.652 329.72 255.361 329.446C255.076 329.173 254.933 328.844 254.933 328.46C254.933 328.076 255.076 327.747 255.361 327.473C255.652 327.2 255.998 327.063 256.4 327.063C256.801 327.063 257.145 327.2 257.43 327.473C257.721 327.747 257.866 328.076 257.866 328.46C257.866 328.844 257.721 329.173 257.43 329.446C257.145 329.72 256.801 329.856 256.4 329.856ZM267.017 332.091V333.837H260.068V332.091H267.017ZM262.094 328.879H264.154V341.659C264.154 342.241 264.238 342.677 264.407 342.968C264.582 343.254 264.803 343.446 265.07 343.545C265.344 343.638 265.632 343.684 265.935 343.684C266.162 343.684 266.348 343.673 266.493 343.649C266.639 343.62 266.755 343.597 266.843 343.579L267.262 345.43C267.122 345.483 266.927 345.535 266.677 345.587C266.426 345.645 266.109 345.675 265.725 345.675C265.143 345.675 264.573 345.549 264.014 345.299C263.461 345.049 263.002 344.668 262.635 344.156C262.274 343.643 262.094 342.998 262.094 342.218V328.879ZM271.443 350.528C271.094 350.528 270.783 350.499 270.509 350.441C270.236 350.389 270.046 350.336 269.942 350.284L270.465 348.468C270.966 348.596 271.408 348.643 271.792 348.608C272.176 348.573 272.517 348.401 272.814 348.093C273.116 347.79 273.393 347.298 273.643 346.617L274.027 345.57L269.069 332.091H271.303L275.005 342.776H275.144L278.846 332.091H281.081L275.389 347.455C275.133 348.148 274.816 348.721 274.437 349.175C274.059 349.635 273.62 349.975 273.119 350.197C272.625 350.418 272.066 350.528 271.443 350.528Z" fill="white"/>
<path d="M154 165.364C154 156.055 154 146.746 154 137.437C154.022 125.817 163.331 116.53 174.973 116.508C193.536 116.497 212.088 116.497 230.651 116.508C242.107 116.508 251.536 125.686 251.602 137.152C251.712 155.935 251.722 174.717 251.602 193.499C251.525 204.779 242.216 214.066 230.936 214.132C212.165 214.242 193.382 214.242 174.6 214.132C163.156 214.055 154.022 204.582 154 193.127C154 183.872 154 174.618 154 165.364ZM209.624 172.253C212.154 172.253 214.278 172.253 216.392 172.253C218.626 172.253 220.587 171.552 222.01 169.778C223.806 167.554 224.179 165.068 222.996 162.451C221.78 159.746 219.546 158.464 216.655 158.355C214.388 158.278 212.121 158.344 209.635 158.344C209.635 155.639 209.755 153.142 209.602 150.656C209.427 147.765 207.302 145.366 204.608 144.665C201.772 143.931 198.661 144.917 197.161 147.425C196.394 148.706 196 150.338 195.847 151.86C195.628 153.985 195.792 156.154 195.792 158.355C193.295 158.355 191.061 158.311 188.838 158.366C185.311 158.464 182.464 160.939 182.015 164.214C181.401 168.682 184.369 172.11 189.046 172.253C191.247 172.318 193.459 172.264 195.792 172.264C195.792 174.728 195.737 176.962 195.803 179.174C195.901 182.142 197.248 184.387 200.008 185.614C204.258 187.497 209.153 184.727 209.558 180.094C209.777 177.575 209.602 175.012 209.602 172.264L209.624 172.253Z" fill="#FD1640"/>
<path d="M279.441 176.853C279.441 186.984 279.462 197.103 279.441 207.233C279.408 224.756 266.386 239.486 249.039 241.677C247.91 241.819 246.771 241.961 245.633 241.961C224.408 241.983 203.173 241.983 181.948 241.972C178.969 241.972 176.461 240.341 175.421 237.668C174.337 234.876 174.829 232.302 176.888 230.123C178.389 228.535 180.338 227.965 182.507 227.965C194.258 227.976 206.02 227.965 217.771 227.965C226.533 227.965 235.294 227.976 244.055 227.965C255.15 227.943 263.593 220.737 265.291 209.774C265.477 208.548 265.422 207.277 265.433 206.029C265.433 185.724 265.444 165.42 265.433 145.115C265.433 142.027 266.539 139.573 269.354 138.128C273.976 135.762 279.408 139.113 279.43 144.337C279.462 155.169 279.43 166 279.43 176.842L279.441 176.853Z" fill="#FD1640"/>
<defs>
<linearGradient id="paint0_linear_3074_840" x1="6.23643" y1="65.4922" x2="6.23643" y2="362.165" gradientUnits="userSpaceOnUse">
<stop stop-color="#DC062D"/>
<stop offset="1" stop-color="#DC062D" stop-opacity="0"/>
</linearGradient>
<linearGradient id="paint1_linear_3074_840" x1="429.131" y1="65.4922" x2="429.131" y2="362.165" gradientUnits="userSpaceOnUse">
<stop stop-color="#DC062D"/>
<stop offset="1" stop-color="#DC062D" stop-opacity="0"/>
</linearGradient>
<linearGradient id="paint2_linear_3074_840" x1="217.143" y1="4" x2="217.143" y2="421.5" gradientUnits="userSpaceOnUse">
<stop stop-color="#FD1640"/>
<stop offset="1" stop-color="#FB133D"/>
</linearGradient>
</defs>
</svg>
