<svg width="434" height="425" viewBox="0 0 434 425" fill="none" xmlns="http://www.w3.org/2000/svg">
<path d="M3 362.165V65.4922L9.47287 73.0439V355.692L3 362.165Z" fill="url(#paint0_linear_3074_841)"/>
<path d="M432.367 362.165V65.4922L425.894 73.0439V355.692L432.367 362.165Z" fill="url(#paint1_linear_3074_841)"/>
<path d="M430.21 26.655V54.7041L416.185 64.4134V361.087L428.052 372.953V398.845L405.397 421.5H278.097L272.703 416.106H159.428L154.034 421.5H28.8918L5.15791 397.766V375.111L17.0248 363.244V65.4922L4.0791 52.5465V26.655L26.7341 4H155.113L160.507 9.39406H271.624L275.94 4H406.476L430.21 26.655Z" stroke="url(#paint2_linear_3074_841)" stroke-width="6.47287"/>
<path d="M127.973 315.5V297.622H134.014C135.416 297.622 136.563 297.875 137.453 298.381C138.35 298.882 139.013 299.56 139.444 300.415C139.874 301.271 140.09 302.225 140.09 303.279C140.09 304.332 139.874 305.289 139.444 306.151C139.019 307.012 138.361 307.699 137.471 308.211C136.58 308.717 135.44 308.97 134.049 308.97H129.719V307.05H133.979C134.939 307.05 135.71 306.884 136.292 306.552C136.874 306.22 137.296 305.772 137.558 305.208C137.826 304.637 137.96 303.994 137.96 303.279C137.96 302.563 137.826 301.923 137.558 301.358C137.296 300.793 136.871 300.351 136.284 300.031C135.696 299.705 134.916 299.542 133.944 299.542H130.138V315.5H127.973ZM143.298 315.5V302.091H145.288V304.117H145.428C145.672 303.453 146.115 302.915 146.755 302.502C147.395 302.088 148.117 301.882 148.92 301.882C149.071 301.882 149.26 301.885 149.487 301.89C149.714 301.896 149.886 301.905 150.002 301.917V304.012C149.932 303.994 149.772 303.968 149.522 303.933C149.278 303.892 149.019 303.872 148.745 303.872C148.093 303.872 147.511 304.009 146.999 304.282C146.493 304.55 146.091 304.923 145.794 305.4C145.503 305.871 145.358 306.41 145.358 307.015V315.5H143.298ZM157.658 315.779C156.366 315.779 155.252 315.494 154.315 314.924C153.383 314.348 152.665 313.545 152.158 312.514C151.658 311.479 151.408 310.274 151.408 308.9C151.408 307.527 151.658 306.316 152.158 305.269C152.665 304.215 153.369 303.395 154.271 302.807C155.179 302.213 156.238 301.917 157.449 301.917C158.147 301.917 158.837 302.033 159.517 302.266C160.198 302.499 160.818 302.877 161.377 303.401C161.936 303.919 162.381 304.605 162.712 305.461C163.044 306.316 163.21 307.37 163.21 308.621V309.494H152.874V307.713H161.115C161.115 306.957 160.964 306.282 160.661 305.688C160.364 305.094 159.939 304.626 159.387 304.282C158.839 303.939 158.193 303.767 157.449 303.767C156.628 303.767 155.918 303.971 155.318 304.378C154.725 304.78 154.268 305.304 153.948 305.95C153.628 306.596 153.468 307.288 153.468 308.027V309.215C153.468 310.227 153.642 311.086 153.992 311.79C154.347 312.488 154.838 313.021 155.467 313.387C156.095 313.748 156.826 313.929 157.658 313.929C158.199 313.929 158.688 313.853 159.125 313.702C159.567 313.545 159.948 313.312 160.268 313.003C160.588 312.689 160.836 312.299 161.01 311.834L163.001 312.392C162.791 313.067 162.439 313.661 161.944 314.173C161.45 314.679 160.839 315.075 160.111 315.36C159.384 315.64 158.566 315.779 157.658 315.779ZM175.842 305.094L173.991 305.618C173.875 305.31 173.703 305.01 173.476 304.719C173.255 304.422 172.952 304.178 172.568 303.986C172.184 303.794 171.692 303.698 171.093 303.698C170.272 303.698 169.589 303.887 169.041 304.265C168.5 304.637 168.23 305.112 168.23 305.688C168.23 306.2 168.416 306.605 168.788 306.901C169.161 307.198 169.743 307.445 170.534 307.643L172.525 308.132C173.723 308.423 174.617 308.868 175.205 309.468C175.792 310.061 176.086 310.827 176.086 311.764C176.086 312.532 175.865 313.219 175.423 313.824C174.986 314.429 174.375 314.906 173.59 315.256C172.804 315.605 171.89 315.779 170.849 315.779C169.481 315.779 168.349 315.483 167.453 314.889C166.556 314.295 165.989 313.428 165.75 312.287L167.706 311.799C167.892 312.52 168.244 313.062 168.762 313.422C169.286 313.783 169.97 313.964 170.814 313.964C171.774 313.964 172.536 313.76 173.101 313.353C173.671 312.939 173.956 312.445 173.956 311.868C173.956 311.403 173.793 311.013 173.467 310.699C173.142 310.379 172.641 310.14 171.966 309.983L169.731 309.459C168.503 309.168 167.601 308.717 167.025 308.106C166.455 307.489 166.169 306.718 166.169 305.793C166.169 305.036 166.382 304.367 166.807 303.785C167.237 303.203 167.822 302.746 168.561 302.414C169.306 302.083 170.15 301.917 171.093 301.917C172.42 301.917 173.462 302.208 174.218 302.79C174.981 303.372 175.522 304.14 175.842 305.094ZM184.809 315.779C183.517 315.779 182.403 315.494 181.466 314.924C180.535 314.348 179.816 313.545 179.31 312.514C178.809 311.479 178.559 310.274 178.559 308.9C178.559 307.527 178.809 306.316 179.31 305.269C179.816 304.215 180.52 303.395 181.422 302.807C182.33 302.213 183.389 301.917 184.6 301.917C185.298 301.917 185.988 302.033 186.669 302.266C187.35 302.499 187.97 302.877 188.528 303.401C189.087 303.919 189.532 304.605 189.864 305.461C190.196 306.316 190.361 307.37 190.361 308.621V309.494H180.026V307.713H188.266C188.266 306.957 188.115 306.282 187.812 305.688C187.516 305.094 187.091 304.626 186.538 304.282C185.991 303.939 185.345 303.767 184.6 303.767C183.779 303.767 183.069 303.971 182.47 304.378C181.876 304.78 181.419 305.304 181.099 305.95C180.779 306.596 180.619 307.288 180.619 308.027V309.215C180.619 310.227 180.794 311.086 181.143 311.79C181.498 312.488 181.99 313.021 182.618 313.387C183.247 313.748 183.977 313.929 184.809 313.929C185.351 313.929 185.839 313.853 186.276 313.702C186.718 313.545 187.099 313.312 187.42 313.003C187.74 312.689 187.987 312.299 188.162 311.834L190.152 312.392C189.942 313.067 189.59 313.661 189.096 314.173C188.601 314.679 187.99 315.075 187.262 315.36C186.535 315.64 185.717 315.779 184.809 315.779ZM193.495 315.5V302.091H195.486V304.117H195.625C195.87 303.453 196.312 302.915 196.952 302.502C197.592 302.088 198.314 301.882 199.117 301.882C199.269 301.882 199.458 301.885 199.685 301.89C199.912 301.896 200.083 301.905 200.2 301.917V304.012C200.13 303.994 199.97 303.968 199.72 303.933C199.475 303.892 199.216 303.872 198.943 303.872C198.291 303.872 197.709 304.009 197.197 304.282C196.69 304.55 196.289 304.923 195.992 305.4C195.701 305.871 195.556 306.41 195.556 307.015V315.5H193.495ZM214.014 302.091L209.056 315.5H206.961L202.002 302.091H204.237L207.939 312.776H208.078L211.78 302.091H214.014ZM220.271 315.814C219.422 315.814 218.651 315.654 217.958 315.334C217.265 315.008 216.715 314.54 216.308 313.929C215.901 313.312 215.697 312.567 215.697 311.694C215.697 310.926 215.848 310.303 216.151 309.826C216.454 309.343 216.858 308.964 217.364 308.691C217.871 308.417 218.429 308.214 219.04 308.08C219.657 307.94 220.277 307.83 220.9 307.748C221.715 307.643 222.375 307.565 222.882 307.512C223.394 307.454 223.766 307.358 223.999 307.224C224.238 307.09 224.357 306.858 224.357 306.526V306.456C224.357 305.595 224.121 304.926 223.65 304.448C223.184 303.971 222.477 303.732 221.528 303.732C220.545 303.732 219.774 303.948 219.215 304.378C218.656 304.809 218.264 305.269 218.037 305.758L216.081 305.059C216.43 304.245 216.896 303.61 217.478 303.156C218.066 302.697 218.706 302.376 219.398 302.196C220.097 302.01 220.783 301.917 221.459 301.917C221.889 301.917 222.384 301.969 222.943 302.074C223.507 302.173 224.051 302.379 224.575 302.694C225.105 303.008 225.544 303.482 225.893 304.117C226.242 304.751 226.417 305.601 226.417 306.666V315.5H224.357V313.684H224.252C224.112 313.975 223.88 314.287 223.554 314.618C223.228 314.95 222.794 315.232 222.253 315.465C221.712 315.698 221.051 315.814 220.271 315.814ZM220.586 313.964C221.4 313.964 222.087 313.804 222.646 313.483C223.21 313.163 223.635 312.75 223.92 312.244C224.211 311.738 224.357 311.205 224.357 310.646V308.761C224.27 308.865 224.077 308.962 223.781 309.049C223.49 309.13 223.152 309.203 222.768 309.267C222.39 309.325 222.02 309.378 221.659 309.424C221.304 309.465 221.016 309.5 220.795 309.529C220.26 309.599 219.759 309.712 219.294 309.869C218.834 310.021 218.461 310.251 218.176 310.559C217.897 310.862 217.757 311.275 217.757 311.799C217.757 312.514 218.022 313.056 218.552 313.422C219.087 313.783 219.765 313.964 220.586 313.964ZM236.009 302.091V303.837H229.06V302.091H236.009ZM231.085 298.879H233.145V311.659C233.145 312.241 233.23 312.677 233.399 312.968C233.573 313.254 233.794 313.446 234.062 313.545C234.336 313.638 234.624 313.684 234.926 313.684C235.153 313.684 235.339 313.673 235.485 313.649C235.63 313.62 235.747 313.597 235.834 313.579L236.253 315.43C236.113 315.483 235.918 315.535 235.668 315.587C235.418 315.645 235.101 315.675 234.717 315.675C234.135 315.675 233.564 315.549 233.006 315.299C232.453 315.049 231.993 314.668 231.626 314.156C231.266 313.643 231.085 312.998 231.085 312.218V298.879ZM239.108 315.5V302.091H241.168V315.5H239.108ZM240.155 299.856C239.754 299.856 239.407 299.72 239.116 299.446C238.831 299.173 238.689 298.844 238.689 298.46C238.689 298.076 238.831 297.747 239.116 297.473C239.407 297.2 239.754 297.063 240.155 297.063C240.557 297.063 240.9 297.2 241.185 297.473C241.476 297.747 241.622 298.076 241.622 298.46C241.622 298.844 241.476 299.173 241.185 299.446C240.9 299.72 240.557 299.856 240.155 299.856ZM250.389 315.779C249.178 315.779 248.116 315.491 247.202 314.915C246.294 314.339 245.584 313.533 245.072 312.497C244.566 311.461 244.313 310.251 244.313 308.865C244.313 307.469 244.566 306.249 245.072 305.208C245.584 304.166 246.294 303.357 247.202 302.781C248.116 302.205 249.178 301.917 250.389 301.917C251.599 301.917 252.658 302.205 253.566 302.781C254.48 303.357 255.19 304.166 255.696 305.208C256.208 306.249 256.464 307.469 256.464 308.865C256.464 310.251 256.208 311.461 255.696 312.497C255.19 313.533 254.48 314.339 253.566 314.915C252.658 315.491 251.599 315.779 250.389 315.779ZM250.389 313.929C251.308 313.929 252.065 313.693 252.658 313.222C253.252 312.75 253.691 312.13 253.976 311.362C254.262 310.594 254.404 309.762 254.404 308.865C254.404 307.969 254.262 307.134 253.976 306.36C253.691 305.586 253.252 304.96 252.658 304.483C252.065 304.006 251.308 303.767 250.389 303.767C249.469 303.767 248.712 304.006 248.119 304.483C247.525 304.96 247.086 305.586 246.801 306.36C246.516 307.134 246.373 307.969 246.373 308.865C246.373 309.762 246.516 310.594 246.801 311.362C247.086 312.13 247.525 312.75 248.119 313.222C248.712 313.693 249.469 313.929 250.389 313.929ZM261.669 307.434V315.5H259.609V302.091H261.6V304.186H261.774C262.088 303.505 262.566 302.958 263.206 302.545C263.846 302.126 264.672 301.917 265.685 301.917C266.593 301.917 267.387 302.103 268.068 302.475C268.749 302.842 269.279 303.401 269.657 304.151C270.035 304.896 270.225 305.839 270.225 306.98V315.5H268.164V307.12C268.164 306.066 267.891 305.246 267.344 304.658C266.797 304.064 266.046 303.767 265.091 303.767C264.434 303.767 263.846 303.91 263.328 304.195C262.816 304.48 262.411 304.896 262.115 305.443C261.818 305.991 261.669 306.654 261.669 307.434ZM286.35 315.779C285.14 315.779 284.078 315.491 283.164 314.915C282.256 314.339 281.546 313.533 281.034 312.497C280.528 311.461 280.274 310.251 280.274 308.865C280.274 307.469 280.528 306.249 281.034 305.208C281.546 304.166 282.256 303.357 283.164 302.781C284.078 302.205 285.14 301.917 286.35 301.917C287.561 301.917 288.62 302.205 289.528 302.781C290.442 303.357 291.152 304.166 291.658 305.208C292.17 306.249 292.426 307.469 292.426 308.865C292.426 310.251 292.17 311.461 291.658 312.497C291.152 313.533 290.442 314.339 289.528 314.915C288.62 315.491 287.561 315.779 286.35 315.779ZM286.35 313.929C287.27 313.929 288.026 313.693 288.62 313.222C289.214 312.75 289.653 312.13 289.938 311.362C290.223 310.594 290.366 309.762 290.366 308.865C290.366 307.969 290.223 307.134 289.938 306.36C289.653 305.586 289.214 304.96 288.62 304.483C288.026 304.006 287.27 303.767 286.35 303.767C285.431 303.767 284.674 304.006 284.081 304.483C283.487 304.96 283.048 305.586 282.762 306.36C282.477 307.134 282.335 307.969 282.335 308.865C282.335 309.762 282.477 310.594 282.762 311.362C283.048 312.13 283.487 312.75 284.081 313.222C284.674 313.693 285.431 313.929 286.35 313.929ZM301.542 302.091V303.837H294.314V302.091H301.542ZM296.479 315.5V300.241C296.479 299.472 296.659 298.832 297.02 298.32C297.381 297.808 297.849 297.424 298.426 297.168C299.002 296.912 299.61 296.784 300.25 296.784C300.756 296.784 301.17 296.824 301.49 296.906C301.81 296.987 302.048 297.063 302.206 297.133L301.612 298.914C301.507 298.879 301.362 298.835 301.175 298.783C300.995 298.73 300.756 298.704 300.46 298.704C299.779 298.704 299.287 298.876 298.984 299.219C298.687 299.563 298.539 300.066 298.539 300.729V315.5H296.479ZM162.177 345.779C160.92 345.779 159.837 345.483 158.929 344.889C158.021 344.295 157.323 343.478 156.834 342.436C156.345 341.394 156.101 340.204 156.101 338.865C156.101 337.504 156.351 336.302 156.852 335.26C157.358 334.213 158.062 333.395 158.964 332.807C159.872 332.213 160.931 331.917 162.142 331.917C163.085 331.917 163.934 332.091 164.691 332.44C165.447 332.79 166.067 333.279 166.55 333.907C167.033 334.536 167.333 335.269 167.449 336.107H165.389C165.232 335.496 164.883 334.955 164.342 334.483C163.806 334.006 163.085 333.767 162.177 333.767C161.374 333.767 160.669 333.977 160.064 334.396C159.465 334.809 158.996 335.394 158.659 336.151C158.327 336.901 158.161 337.783 158.161 338.796C158.161 339.832 158.324 340.734 158.65 341.502C158.982 342.27 159.447 342.867 160.047 343.291C160.652 343.716 161.362 343.929 162.177 343.929C162.712 343.929 163.198 343.836 163.635 343.649C164.071 343.463 164.441 343.195 164.743 342.846C165.046 342.497 165.261 342.078 165.389 341.589H167.449C167.333 342.381 167.045 343.094 166.585 343.728C166.131 344.356 165.529 344.857 164.778 345.229C164.033 345.596 163.166 345.779 162.177 345.779ZM178.911 340.018V332.091H180.972V345.5H178.911V343.23H178.772C178.457 343.911 177.969 344.49 177.305 344.967C176.642 345.439 175.804 345.675 174.791 345.675C173.953 345.675 173.208 345.491 172.556 345.125C171.904 344.752 171.392 344.193 171.02 343.449C170.647 342.698 170.461 341.752 170.461 340.611V332.091H172.521V340.472C172.521 341.449 172.795 342.229 173.342 342.811C173.895 343.393 174.599 343.684 175.454 343.684C175.967 343.684 176.488 343.553 177.017 343.291C177.553 343.03 178.001 342.628 178.361 342.087C178.728 341.545 178.911 340.856 178.911 340.018ZM186.805 327.622V345.5H184.745V327.622H186.805ZM196.41 332.091V333.837H189.461V332.091H196.41ZM191.486 328.879H193.547V341.659C193.547 342.241 193.631 342.677 193.8 342.968C193.974 343.254 194.196 343.446 194.463 343.545C194.737 343.638 195.025 343.684 195.328 343.684C195.554 343.684 195.741 343.673 195.886 343.649C196.032 343.62 196.148 343.597 196.235 343.579L196.654 345.43C196.515 345.483 196.32 345.535 196.07 345.587C195.819 345.645 195.502 345.675 195.118 345.675C194.536 345.675 193.966 345.549 193.407 345.299C192.854 345.049 192.394 344.668 192.028 344.156C191.667 343.643 191.486 342.998 191.486 342.218V328.879ZM207.959 340.018V332.091H210.019V345.5H207.959V343.23H207.82C207.505 343.911 207.016 344.49 206.353 344.967C205.69 345.439 204.852 345.675 203.839 345.675C203.001 345.675 202.256 345.491 201.604 345.125C200.952 344.752 200.44 344.193 200.068 343.449C199.695 342.698 199.509 341.752 199.509 340.611V332.091H201.569V340.472C201.569 341.449 201.843 342.229 202.39 342.811C202.943 343.393 203.647 343.684 204.502 343.684C205.014 343.684 205.535 343.553 206.065 343.291C206.6 343.03 207.048 342.628 207.409 342.087C207.776 341.545 207.959 340.856 207.959 340.018ZM213.793 345.5V332.091H215.783V334.117H215.923C216.167 333.453 216.61 332.915 217.25 332.502C217.89 332.088 218.612 331.882 219.415 331.882C219.566 331.882 219.755 331.885 219.982 331.89C220.209 331.896 220.381 331.905 220.497 331.917V334.012C220.427 333.994 220.267 333.968 220.017 333.933C219.773 333.892 219.514 333.872 219.24 333.872C218.588 333.872 218.006 334.009 217.494 334.282C216.988 334.55 216.586 334.923 216.29 335.4C215.999 335.871 215.853 336.41 215.853 337.015V345.5H213.793ZM226.885 345.814C226.035 345.814 225.264 345.654 224.572 345.334C223.879 345.008 223.329 344.54 222.922 343.929C222.515 343.312 222.311 342.567 222.311 341.694C222.311 340.926 222.462 340.303 222.765 339.826C223.067 339.343 223.472 338.964 223.978 338.691C224.484 338.417 225.043 338.214 225.654 338.08C226.271 337.94 226.891 337.83 227.514 337.748C228.328 337.643 228.989 337.565 229.495 337.512C230.007 337.454 230.38 337.358 230.613 337.224C230.851 337.09 230.971 336.858 230.971 336.526V336.456C230.971 335.595 230.735 334.926 230.264 334.448C229.798 333.971 229.091 333.732 228.142 333.732C227.159 333.732 226.388 333.948 225.829 334.378C225.27 334.809 224.877 335.269 224.65 335.758L222.695 335.059C223.044 334.245 223.51 333.61 224.092 333.156C224.679 332.697 225.32 332.376 226.012 332.196C226.711 332.01 227.397 331.917 228.072 331.917C228.503 331.917 228.998 331.969 229.556 332.074C230.121 332.173 230.665 332.379 231.189 332.694C231.718 333.008 232.158 333.482 232.507 334.117C232.856 334.751 233.031 335.601 233.031 336.666V345.5H230.971V343.684H230.866C230.726 343.975 230.493 344.287 230.167 344.618C229.842 344.95 229.408 345.232 228.867 345.465C228.326 345.698 227.665 345.814 226.885 345.814ZM227.199 343.964C228.014 343.964 228.701 343.804 229.26 343.483C229.824 343.163 230.249 342.75 230.534 342.244C230.825 341.738 230.971 341.205 230.971 340.646V338.761C230.883 338.865 230.691 338.962 230.394 339.049C230.103 339.13 229.766 339.203 229.382 339.267C229.004 339.325 228.634 339.378 228.273 339.424C227.918 339.465 227.63 339.5 227.409 339.529C226.873 339.599 226.373 339.712 225.907 339.869C225.448 340.021 225.075 340.251 224.79 340.559C224.511 340.862 224.371 341.275 224.371 341.799C224.371 342.514 224.636 343.056 225.165 343.422C225.701 343.783 226.379 343.964 227.199 343.964ZM238.851 327.622V345.5H236.791V327.622H238.851ZM253.484 345.814C252.635 345.814 251.864 345.654 251.171 345.334C250.478 345.008 249.928 344.54 249.521 343.929C249.114 343.312 248.91 342.567 248.91 341.694C248.91 340.926 249.061 340.303 249.364 339.826C249.667 339.343 250.071 338.964 250.577 338.691C251.084 338.417 251.642 338.214 252.253 338.08C252.87 337.94 253.49 337.83 254.113 337.748C254.928 337.643 255.588 337.565 256.094 337.512C256.607 337.454 256.979 337.358 257.212 337.224C257.45 337.09 257.57 336.858 257.57 336.526V336.456C257.57 335.595 257.334 334.926 256.863 334.448C256.397 333.971 255.69 333.732 254.741 333.732C253.758 333.732 252.987 333.948 252.428 334.378C251.869 334.809 251.477 335.269 251.25 335.758L249.294 335.059C249.643 334.245 250.109 333.61 250.691 333.156C251.279 332.697 251.919 332.376 252.611 332.196C253.31 332.01 253.996 331.917 254.672 331.917C255.102 331.917 255.597 331.969 256.156 332.074C256.72 332.173 257.264 332.379 257.788 332.694C258.318 333.008 258.757 333.482 259.106 334.117C259.455 334.751 259.63 335.601 259.63 336.666V345.5H257.57V343.684H257.465C257.325 343.975 257.093 344.287 256.767 344.618C256.441 344.95 256.007 345.232 255.466 345.465C254.925 345.698 254.264 345.814 253.484 345.814ZM253.799 343.964C254.613 343.964 255.3 343.804 255.859 343.483C256.423 343.163 256.848 342.75 257.133 342.244C257.424 341.738 257.57 341.205 257.57 340.646V338.761C257.483 338.865 257.29 338.962 256.994 339.049C256.703 339.13 256.365 339.203 255.981 339.267C255.603 339.325 255.233 339.378 254.872 339.424C254.517 339.465 254.229 339.5 254.008 339.529C253.473 339.599 252.972 339.712 252.507 339.869C252.047 340.021 251.674 340.251 251.389 340.559C251.11 340.862 250.97 341.275 250.97 341.799C250.97 342.514 251.235 343.056 251.765 343.422C252.3 343.783 252.978 343.964 253.799 343.964ZM263.39 345.5V332.091H265.381V334.117H265.52C265.765 333.453 266.207 332.915 266.847 332.502C267.487 332.088 268.209 331.882 269.012 331.882C269.163 331.882 269.353 331.885 269.58 331.89C269.807 331.896 269.978 331.905 270.095 331.917V334.012C270.025 333.994 269.865 333.968 269.615 333.933C269.37 333.892 269.111 333.872 268.838 333.872C268.186 333.872 267.604 334.009 267.092 334.282C266.585 334.55 266.184 334.923 265.887 335.4C265.596 335.871 265.45 336.41 265.45 337.015V345.5H263.39ZM279.208 332.091V333.837H272.26V332.091H279.208ZM274.285 328.879H276.345V341.659C276.345 342.241 276.429 342.677 276.598 342.968C276.773 343.254 276.994 343.446 277.262 343.545C277.535 343.638 277.823 343.684 278.126 343.684C278.353 343.684 278.539 343.673 278.685 343.649C278.83 343.62 278.947 343.597 279.034 343.579L279.453 345.43C279.313 345.483 279.118 345.535 278.868 345.587C278.618 345.645 278.301 345.675 277.916 345.675C277.334 345.675 276.764 345.549 276.205 345.299C275.653 345.049 275.193 344.668 274.826 344.156C274.465 343.643 274.285 342.998 274.285 342.218V328.879Z" fill="white"/>
<path d="M280.175 139.179C279.443 140.052 278.821 141.057 277.958 141.788C274.245 144.9 270.467 147.936 266.678 150.971C266.089 151.441 265.958 151.834 266.176 152.576C267.694 157.752 269.146 162.95 270.62 168.136C271.221 170.233 270.806 171.729 269.354 172.733C267.945 173.705 266.351 173.552 264.604 172.242C260.596 169.239 256.6 166.236 252.527 163.179C249.524 165.428 246.554 167.645 243.584 169.873C242.46 170.713 241.346 171.565 240.221 172.395C238.627 173.563 237.022 173.672 235.668 172.722C234.281 171.751 233.801 170.233 234.336 168.355C235.821 163.124 237.306 157.905 238.845 152.697C239.096 151.867 238.922 151.43 238.267 150.895C234.357 147.772 230.481 144.595 226.594 141.439C225.011 140.15 224.497 138.72 225.054 137.137C225.633 135.488 226.943 134.647 229.007 134.647C233.691 134.647 238.387 134.603 243.071 134.669C244.108 134.68 244.512 134.33 244.818 133.38C246.139 129.231 247.548 125.115 248.924 120.976C249.59 118.989 250.769 118.017 252.527 118.017C254.285 118.017 255.464 118.967 256.13 120.965C257.506 125.093 258.915 129.22 260.236 133.37C260.542 134.309 260.935 134.68 261.972 134.658C266.46 134.592 270.948 134.702 275.436 134.603C277.63 134.549 279.236 135.237 280.186 137.268V139.189L280.175 139.179Z" fill="#FD1640"/>
<path d="M195.266 241.186C193.443 240.357 192.646 238.992 192.537 236.95C192.253 231.643 192.537 226.38 193.083 221.106C194.054 211.748 196.151 202.663 199.372 193.83C205.116 178.04 214.069 164.38 226.397 152.937C228.668 150.83 231.835 151.496 232.654 154.291C233.123 155.885 232.534 157.174 231.344 158.266C226.725 162.502 222.586 167.176 218.917 172.264C210.248 184.308 204.657 197.684 201.763 212.196C200.169 220.2 199.394 228.28 199.842 236.447C199.962 238.686 199.263 240.258 197.199 241.175H195.277L195.266 241.186Z" fill="#FD1640"/>
<path d="M184.205 241.186C182.753 240.574 181.967 239.395 181.345 237.987C177.184 228.465 174.564 218.55 173.57 208.188C172.576 197.716 173.188 187.409 176.278 177.308C176.66 176.053 177.097 174.797 177.556 173.574C178.385 171.401 180.362 170.418 182.327 171.161C184.315 171.914 185.177 173.934 184.358 176.107C182.644 180.617 181.377 185.258 181.05 190.062C180.711 195.041 180.416 200.064 180.668 205.043C181.148 214.401 183.266 223.464 186.793 232.178C187.197 233.182 187.612 234.176 188.049 235.158C189.359 238.129 188.89 239.635 186.116 241.186H184.194H184.205Z" fill="#FD1640"/>
<path d="M207.529 241.186C204.919 239.723 204.373 238.467 205.279 235.563C208.304 225.921 213.938 218.518 223.514 214.576C226.332 213.408 229.291 212.687 232.348 212.578C233.8 212.523 234.881 213.277 235.526 214.554C236.159 215.799 236.17 217.131 235.242 218.158C234.587 218.867 233.604 219.599 232.698 219.708C221.866 221.04 215.543 227.494 212.322 237.485C211.787 239.134 211.121 240.498 209.45 241.197H207.529V241.186Z" fill="#FD1640"/>
<path d="M280.174 122.582C279.497 123.958 278.58 125.061 276.92 125.214C275.075 125.377 273.415 124.165 273.011 122.397C272.629 120.671 273.59 118.902 275.271 118.258C276.997 117.592 278.842 118.291 279.759 119.962C279.89 120.202 280.032 120.431 280.163 120.671V122.593L280.174 122.582Z" fill="#FD1640"/>
<path d="M159.67 241.186C158.294 240.499 157.18 239.603 157.038 237.932C156.875 236.076 158.076 234.427 159.856 234.023C161.581 233.641 163.35 234.602 163.994 236.284C164.66 238.009 163.961 239.854 162.291 240.771C162.05 240.903 161.821 241.044 161.592 241.186H159.67Z" fill="#FD1640"/>
<path d="M181.082 162.427C177.686 164.971 174.421 167.428 171.157 169.874C169.497 171.119 167.903 171.282 166.505 170.343C165.053 169.372 164.605 167.843 165.195 165.757C166.396 161.531 167.597 157.306 168.82 153.08C169.027 152.381 168.94 151.955 168.329 151.475C165.162 148.963 162.039 146.387 158.894 143.831C157.158 142.412 156.634 141.003 157.245 139.355C157.857 137.673 159.069 136.985 161.373 136.974C165.14 136.974 168.907 136.941 172.674 136.996C173.515 137.007 173.865 136.734 174.105 135.959C175.197 132.53 176.354 129.123 177.49 125.716C178.145 123.762 179.368 122.79 181.126 122.812C182.84 122.823 184.03 123.784 184.675 125.684C185.81 129.058 186.968 132.421 188.016 135.817C188.311 136.778 188.769 137.007 189.708 136.996C193.519 136.941 197.319 136.963 201.13 136.974C203.15 136.974 204.395 137.782 204.952 139.431C205.487 140.981 204.984 142.434 203.488 143.657C200.322 146.245 197.166 148.843 193.956 151.366C193.224 151.944 193.159 152.447 193.399 153.277C194.633 157.459 195.812 161.641 197.002 165.834C197.559 167.81 197.101 169.361 195.681 170.321C194.305 171.25 192.711 171.13 191.128 169.95C187.797 167.461 184.478 164.96 181.093 162.416L181.082 162.427Z" fill="#FD1640"/>
<path d="M259.308 198.35C262.955 198.35 266.525 198.35 270.085 198.35C272.138 198.35 273.361 199.125 273.95 200.752C274.518 202.346 274.027 203.799 272.455 205.076C269.812 207.227 267.191 209.4 264.505 211.508C263.806 212.054 263.621 212.534 263.883 213.408C264.953 216.924 265.936 220.472 266.929 224.01C267.497 226.03 267.06 227.548 265.674 228.52C264.243 229.513 262.649 229.372 260.924 228.072C258.391 226.172 255.846 224.294 253.335 222.361C252.713 221.881 252.309 221.87 251.675 222.361C249.142 224.327 246.565 226.227 243.999 228.149C242.361 229.372 240.745 229.513 239.336 228.542C237.939 227.581 237.491 226.052 238.059 224.043C239.074 220.472 240.079 216.891 241.138 213.331C241.357 212.578 241.258 212.119 240.603 211.606C237.895 209.477 235.242 207.282 232.567 205.109C230.994 203.831 230.481 202.39 231.038 200.807C231.617 199.169 232.85 198.383 234.881 198.383C238.124 198.383 241.378 198.35 244.621 198.405C245.44 198.415 245.79 198.175 246.041 197.389C246.936 194.528 247.919 191.7 248.88 188.861C249.557 186.863 250.725 185.902 252.472 185.891C254.23 185.891 255.421 186.841 256.087 188.828C257.157 192.006 258.216 195.183 259.286 198.383L259.308 198.35Z" fill="#FD1640"/>
<path d="M220.949 131.776C220.85 136.537 219.267 140.697 216.002 144.202C214.364 145.96 212.148 146.146 210.575 144.672C209.058 143.252 209.079 141.046 210.641 139.31C214.703 134.801 214.692 128.85 210.619 124.318C209.079 122.604 209.068 120.365 210.597 118.957C212.137 117.537 214.332 117.712 215.948 119.383C219.07 122.615 220.938 127.234 220.949 131.787V131.776Z" fill="#FD1640"/>
<path d="M230.863 187.048C230.863 189.09 229.247 190.674 227.205 190.652C225.228 190.63 223.667 189.036 223.667 187.048C223.667 185.007 225.283 183.423 227.325 183.445C229.312 183.467 230.874 185.05 230.863 187.048Z" fill="#FD1640"/>
<defs>
<linearGradient id="paint0_linear_3074_841" x1="6.23643" y1="65.4922" x2="6.23643" y2="362.165" gradientUnits="userSpaceOnUse">
<stop stop-color="#DC062D"/>
<stop offset="1" stop-color="#DC062D" stop-opacity="0"/>
</linearGradient>
<linearGradient id="paint1_linear_3074_841" x1="429.131" y1="65.4922" x2="429.131" y2="362.165" gradientUnits="userSpaceOnUse">
<stop stop-color="#DC062D"/>
<stop offset="1" stop-color="#DC062D" stop-opacity="0"/>
</linearGradient>
<linearGradient id="paint2_linear_3074_841" x1="217.144" y1="4" x2="217.144" y2="421.5" gradientUnits="userSpaceOnUse">
<stop stop-color="#FD1640"/>
<stop offset="1" stop-color="#FB133D"/>
</linearGradient>
</defs>
</svg>
