<svg width="434" height="425" viewBox="0 0 434 425" fill="none" xmlns="http://www.w3.org/2000/svg">
<path d="M3 362.165V65.4922L9.47287 73.0439V355.692L3 362.165Z" fill="url(#paint0_linear_3074_837)"/>
<path d="M432.367 362.165V65.4922L425.894 73.0439V355.692L432.367 362.165Z" fill="url(#paint1_linear_3074_837)"/>
<path d="M430.21 26.655V54.7041L416.185 64.4134V361.087L428.052 372.953V398.845L405.397 421.5H278.097L272.703 416.106H159.428L154.034 421.5H28.8918L5.15791 397.766V375.111L17.0248 363.244V65.4922L4.0791 52.5465V26.655L26.7341 4H155.113L160.507 9.39406H271.624L275.94 4H406.476L430.21 26.655Z" stroke="url(#paint2_linear_3074_837)" stroke-width="6.47287"/>
<path d="M105.714 315.5V297.622H107.879V313.579H116.19V315.5H105.714ZM124.71 315.779C123.499 315.779 122.437 315.491 121.524 314.915C120.616 314.339 119.906 313.533 119.394 312.497C118.887 311.461 118.634 310.251 118.634 308.865C118.634 307.469 118.887 306.249 119.394 305.208C119.906 304.166 120.616 303.357 121.524 302.781C122.437 302.205 123.499 301.917 124.71 301.917C125.92 301.917 126.98 302.205 127.887 302.781C128.801 303.357 129.511 304.166 130.017 305.208C130.53 306.249 130.786 307.469 130.786 308.865C130.786 310.251 130.53 311.461 130.017 312.497C129.511 313.533 128.801 314.339 127.887 314.915C126.98 315.491 125.92 315.779 124.71 315.779ZM124.71 313.929C125.629 313.929 126.386 313.693 126.98 313.222C127.573 312.75 128.013 312.13 128.298 311.362C128.583 310.594 128.725 309.762 128.725 308.865C128.725 307.969 128.583 307.134 128.298 306.36C128.013 305.586 127.573 304.96 126.98 304.483C126.386 304.006 125.629 303.767 124.71 303.767C123.79 303.767 123.034 304.006 122.44 304.483C121.847 304.96 121.407 305.586 121.122 306.36C120.837 307.134 120.694 307.969 120.694 308.865C120.694 309.762 120.837 310.594 121.122 311.362C121.407 312.13 121.847 312.75 122.44 313.222C123.034 313.693 123.79 313.929 124.71 313.929ZM135.991 307.434V315.5H133.931V302.091H135.921V304.186H136.095C136.41 303.505 136.887 302.958 137.527 302.545C138.167 302.126 138.994 301.917 140.006 301.917C140.914 301.917 141.709 302.103 142.39 302.475C143.07 302.842 143.6 303.401 143.978 304.151C144.357 304.896 144.546 305.839 144.546 306.98V315.5H142.486V307.12C142.486 306.066 142.212 305.246 141.665 304.658C141.118 304.064 140.367 303.767 139.413 303.767C138.755 303.767 138.167 303.91 137.649 304.195C137.137 304.48 136.733 304.896 136.436 305.443C136.139 305.991 135.991 306.654 135.991 307.434ZM153.723 320.808C152.728 320.808 151.872 320.68 151.156 320.424C150.44 320.173 149.844 319.842 149.367 319.428C148.895 319.021 148.52 318.584 148.241 318.119L149.882 316.967C150.068 317.211 150.304 317.49 150.589 317.805C150.874 318.125 151.264 318.401 151.759 318.634C152.259 318.873 152.914 318.992 153.723 318.992C154.805 318.992 155.699 318.73 156.403 318.206C157.107 317.682 157.459 316.862 157.459 315.744V313.021H157.284C157.133 313.265 156.918 313.568 156.638 313.929C156.365 314.284 155.969 314.601 155.451 314.88C154.939 315.154 154.247 315.29 153.374 315.29C152.291 315.29 151.319 315.034 150.458 314.522C149.602 314.01 148.924 313.265 148.424 312.287C147.929 311.31 147.682 310.123 147.682 308.726C147.682 307.352 147.923 306.156 148.406 305.138C148.889 304.114 149.562 303.322 150.423 302.763C151.284 302.199 152.279 301.917 153.409 301.917C154.281 301.917 154.974 302.062 155.486 302.353C156.004 302.638 156.4 302.964 156.673 303.331C156.953 303.692 157.168 303.989 157.319 304.221H157.529V302.091H159.519V315.884C159.519 317.036 159.257 317.973 158.734 318.695C158.216 319.423 157.517 319.955 156.638 320.293C155.766 320.636 154.794 320.808 153.723 320.808ZM153.653 313.44C154.479 313.44 155.178 313.251 155.748 312.872C156.318 312.494 156.752 311.95 157.049 311.24C157.346 310.53 157.494 309.68 157.494 308.691C157.494 307.725 157.349 306.872 157.058 306.133C156.767 305.394 156.336 304.815 155.766 304.396C155.195 303.977 154.491 303.767 153.653 303.767C152.78 303.767 152.053 303.989 151.471 304.431C150.894 304.873 150.461 305.467 150.17 306.212C149.885 306.957 149.742 307.783 149.742 308.691C149.742 309.622 149.888 310.446 150.179 311.161C150.475 311.871 150.912 312.43 151.488 312.837C152.07 313.239 152.792 313.44 153.653 313.44ZM170.973 306.875V308.796H163.151V306.875H170.973ZM172.075 299.542V297.622H185.483V299.542H179.862V315.5H177.697V299.542H172.075ZM192.223 315.779C190.931 315.779 189.816 315.494 188.879 314.924C187.948 314.348 187.229 313.545 186.723 312.514C186.222 311.479 185.972 310.274 185.972 308.9C185.972 307.527 186.222 306.316 186.723 305.269C187.229 304.215 187.934 303.395 188.836 302.807C189.743 302.213 190.803 301.917 192.013 301.917C192.712 301.917 193.401 302.033 194.082 302.266C194.763 302.499 195.383 302.877 195.941 303.401C196.5 303.919 196.945 304.605 197.277 305.461C197.609 306.316 197.775 307.37 197.775 308.621V309.494H187.439V307.713H195.68C195.68 306.957 195.528 306.282 195.226 305.688C194.929 305.094 194.504 304.626 193.951 304.282C193.404 303.939 192.758 303.767 192.013 303.767C191.193 303.767 190.483 303.971 189.883 304.378C189.29 304.78 188.833 305.304 188.513 305.95C188.192 306.596 188.032 307.288 188.032 308.027V309.215C188.032 310.227 188.207 311.086 188.556 311.79C188.911 312.488 189.403 313.021 190.032 313.387C190.66 313.748 191.39 313.929 192.223 313.929C192.764 313.929 193.253 313.853 193.689 313.702C194.132 313.545 194.513 313.312 194.833 313.003C195.153 312.689 195.4 312.299 195.575 311.834L197.565 312.392C197.356 313.067 197.004 313.661 196.509 314.173C196.014 314.679 195.403 315.075 194.676 315.36C193.948 315.64 193.131 315.779 192.223 315.779ZM200.909 315.5V302.091H202.899V304.117H203.039C203.283 303.453 203.725 302.915 204.366 302.502C205.006 302.088 205.727 301.882 206.531 301.882C206.682 301.882 206.871 301.885 207.098 301.89C207.325 301.896 207.497 301.905 207.613 301.917V304.012C207.543 303.994 207.383 303.968 207.133 303.933C206.888 303.892 206.629 303.872 206.356 303.872C205.704 303.872 205.122 304.009 204.61 304.282C204.104 304.55 203.702 304.923 203.405 305.4C203.114 305.871 202.969 306.41 202.969 307.015V315.5H200.909ZM210.055 315.5V302.091H212.045V304.186H212.22C212.499 303.471 212.95 302.915 213.573 302.519C214.196 302.117 214.944 301.917 215.817 301.917C216.701 301.917 217.437 302.117 218.025 302.519C218.619 302.915 219.082 303.471 219.413 304.186H219.553C219.896 303.494 220.411 302.944 221.098 302.536C221.785 302.123 222.608 301.917 223.569 301.917C224.767 301.917 225.748 302.292 226.51 303.043C227.273 303.788 227.654 304.949 227.654 306.526V315.5H225.594V306.526C225.594 305.537 225.323 304.829 224.782 304.405C224.241 303.98 223.604 303.767 222.87 303.767C221.927 303.767 221.197 304.053 220.679 304.623C220.161 305.187 219.902 305.903 219.902 306.77V315.5H217.807V306.316C217.807 305.554 217.56 304.94 217.065 304.474C216.57 304.003 215.933 303.767 215.153 303.767C214.618 303.767 214.117 303.91 213.652 304.195C213.192 304.48 212.82 304.876 212.534 305.382C212.255 305.883 212.115 306.462 212.115 307.12V315.5H210.055ZM247.833 305.094L245.982 305.618C245.866 305.31 245.694 305.01 245.467 304.719C245.246 304.422 244.943 304.178 244.559 303.986C244.175 303.794 243.683 303.698 243.084 303.698C242.263 303.698 241.579 303.887 241.032 304.265C240.491 304.637 240.22 305.112 240.22 305.688C240.22 306.2 240.407 306.605 240.779 306.901C241.152 307.198 241.734 307.445 242.525 307.643L244.515 308.132C245.714 308.423 246.608 308.868 247.195 309.468C247.783 310.061 248.077 310.827 248.077 311.764C248.077 312.532 247.856 313.219 247.414 313.824C246.977 314.429 246.366 314.906 245.58 315.256C244.795 315.605 243.881 315.779 242.839 315.779C241.472 315.779 240.34 315.483 239.443 314.889C238.547 314.295 237.98 313.428 237.741 312.287L239.697 311.799C239.883 312.52 240.235 313.062 240.753 313.422C241.277 313.783 241.96 313.964 242.804 313.964C243.765 313.964 244.527 313.76 245.092 313.353C245.662 312.939 245.947 312.445 245.947 311.868C245.947 311.403 245.784 311.013 245.458 310.699C245.132 310.379 244.632 310.14 243.957 309.983L241.722 309.459C240.494 309.168 239.592 308.717 239.016 308.106C238.445 307.489 238.16 306.718 238.16 305.793C238.16 305.036 238.373 304.367 238.797 303.785C239.228 303.203 239.813 302.746 240.552 302.414C241.297 302.083 242.141 301.917 243.084 301.917C244.411 301.917 245.452 302.208 246.209 302.79C246.971 303.372 247.513 304.14 247.833 305.094ZM259.629 310.018V302.091H261.689V315.5H259.629V313.23H259.489C259.175 313.911 258.686 314.49 258.022 314.967C257.359 315.439 256.521 315.675 255.508 315.675C254.67 315.675 253.925 315.491 253.273 315.125C252.622 314.752 252.109 314.193 251.737 313.449C251.364 312.698 251.178 311.752 251.178 310.611V302.091H253.238V310.472C253.238 311.449 253.512 312.229 254.059 312.811C254.612 313.393 255.316 313.684 256.172 313.684C256.684 313.684 257.205 313.553 257.734 313.291C258.27 313.03 258.718 312.628 259.079 312.087C259.445 311.545 259.629 310.856 259.629 310.018ZM270.909 315.779C269.652 315.779 268.57 315.483 267.662 314.889C266.754 314.295 266.056 313.478 265.567 312.436C265.078 311.394 264.834 310.204 264.834 308.865C264.834 307.504 265.084 306.302 265.584 305.26C266.091 304.213 266.795 303.395 267.697 302.807C268.605 302.213 269.664 301.917 270.874 301.917C271.817 301.917 272.667 302.091 273.424 302.44C274.18 302.79 274.8 303.279 275.283 303.907C275.766 304.536 276.066 305.269 276.182 306.107H274.122C273.965 305.496 273.616 304.955 273.074 304.483C272.539 304.006 271.817 303.767 270.909 303.767C270.106 303.767 269.402 303.977 268.797 304.396C268.197 304.809 267.729 305.394 267.391 306.151C267.06 306.901 266.894 307.783 266.894 308.796C266.894 309.832 267.057 310.734 267.383 311.502C267.714 312.27 268.18 312.867 268.779 313.291C269.385 313.716 270.095 313.929 270.909 313.929C271.445 313.929 271.931 313.836 272.367 313.649C272.804 313.463 273.173 313.195 273.476 312.846C273.779 312.497 273.994 312.078 274.122 311.589H276.182C276.066 312.381 275.778 313.094 275.318 313.728C274.864 314.356 274.262 314.857 273.511 315.229C272.766 315.596 271.899 315.779 270.909 315.779ZM284.641 315.779C283.384 315.779 282.302 315.483 281.394 314.889C280.486 314.295 279.787 313.478 279.299 312.436C278.81 311.394 278.565 310.204 278.565 308.865C278.565 307.504 278.816 306.302 279.316 305.26C279.822 304.213 280.527 303.395 281.429 302.807C282.336 302.213 283.396 301.917 284.606 301.917C285.549 301.917 286.399 302.091 287.155 302.44C287.912 302.79 288.532 303.279 289.015 303.907C289.498 304.536 289.797 305.269 289.914 306.107H287.854C287.696 305.496 287.347 304.955 286.806 304.483C286.271 304.006 285.549 303.767 284.641 303.767C283.838 303.767 283.134 303.977 282.529 304.396C281.929 304.809 281.461 305.394 281.123 306.151C280.791 306.901 280.625 307.783 280.625 308.796C280.625 309.832 280.788 310.734 281.114 311.502C281.446 312.27 281.912 312.867 282.511 313.291C283.116 313.716 283.826 313.929 284.641 313.929C285.177 313.929 285.662 313.836 286.099 313.649C286.535 313.463 286.905 313.195 287.208 312.846C287.51 312.497 287.726 312.078 287.854 311.589H289.914C289.797 312.381 289.509 313.094 289.05 313.728C288.596 314.356 287.993 314.857 287.243 315.229C286.498 315.596 285.63 315.779 284.641 315.779ZM298.547 315.779C297.255 315.779 296.141 315.494 295.204 314.924C294.273 314.348 293.554 313.545 293.048 312.514C292.547 311.479 292.297 310.274 292.297 308.9C292.297 307.527 292.547 306.316 293.048 305.269C293.554 304.215 294.258 303.395 295.16 302.807C296.068 302.213 297.127 301.917 298.338 301.917C299.036 301.917 299.726 302.033 300.407 302.266C301.088 302.499 301.708 302.877 302.266 303.401C302.825 303.919 303.27 304.605 303.602 305.461C303.934 306.316 304.099 307.37 304.099 308.621V309.494H293.764V307.713H302.004C302.004 306.957 301.853 306.282 301.55 305.688C301.254 305.094 300.829 304.626 300.276 304.282C299.729 303.939 299.083 303.767 298.338 303.767C297.517 303.767 296.807 303.971 296.208 304.378C295.614 304.78 295.157 305.304 294.837 305.95C294.517 306.596 294.357 307.288 294.357 308.027V309.215C294.357 310.227 294.532 311.086 294.881 311.79C295.236 312.488 295.728 313.021 296.356 313.387C296.985 313.748 297.715 313.929 298.547 313.929C299.089 313.929 299.578 313.853 300.014 313.702C300.456 313.545 300.838 313.312 301.158 313.003C301.478 312.689 301.725 312.299 301.9 311.834L303.89 312.392C303.68 313.067 303.328 313.661 302.834 314.173C302.339 314.679 301.728 315.075 301 315.36C300.273 315.64 299.455 315.779 298.547 315.779ZM316.731 305.094L314.881 305.618C314.764 305.31 314.592 305.01 314.366 304.719C314.144 304.422 313.842 304.178 313.458 303.986C313.074 303.794 312.582 303.698 311.982 303.698C311.162 303.698 310.478 303.887 309.931 304.265C309.39 304.637 309.119 305.112 309.119 305.688C309.119 306.2 309.305 306.605 309.678 306.901C310.05 307.198 310.632 307.445 311.424 307.643L313.414 308.132C314.613 308.423 315.506 308.868 316.094 309.468C316.682 310.061 316.976 310.827 316.976 311.764C316.976 312.532 316.755 313.219 316.312 313.824C315.876 314.429 315.265 314.906 314.479 315.256C313.693 315.605 312.78 315.779 311.738 315.779C310.37 315.779 309.238 315.483 308.342 314.889C307.446 314.295 306.878 313.428 306.64 312.287L308.595 311.799C308.781 312.52 309.134 313.062 309.652 313.422C310.175 313.783 310.859 313.964 311.703 313.964C312.663 313.964 313.426 313.76 313.99 313.353C314.56 312.939 314.846 312.445 314.846 311.868C314.846 311.403 314.683 311.013 314.357 310.699C314.031 310.379 313.53 310.14 312.855 309.983L310.621 309.459C309.393 309.168 308.49 308.717 307.914 308.106C307.344 307.489 307.059 306.718 307.059 305.793C307.059 305.036 307.271 304.367 307.696 303.785C308.127 303.203 308.712 302.746 309.451 302.414C310.196 302.083 311.04 301.917 311.982 301.917C313.309 301.917 314.351 302.208 315.108 302.79C315.87 303.372 316.411 304.14 316.731 305.094ZM329.575 305.094L327.724 305.618C327.608 305.31 327.436 305.01 327.209 304.719C326.988 304.422 326.685 304.178 326.301 303.986C325.917 303.794 325.425 303.698 324.826 303.698C324.005 303.698 323.321 303.887 322.774 304.265C322.233 304.637 321.962 305.112 321.962 305.688C321.962 306.2 322.149 306.605 322.521 306.901C322.894 307.198 323.476 307.445 324.267 307.643L326.257 308.132C327.456 308.423 328.35 308.868 328.937 309.468C329.525 310.061 329.819 310.827 329.819 311.764C329.819 312.532 329.598 313.219 329.156 313.824C328.719 314.429 328.108 314.906 327.322 315.256C326.537 315.605 325.623 315.779 324.581 315.779C323.214 315.779 322.082 315.483 321.186 314.889C320.289 314.295 319.722 313.428 319.483 312.287L321.439 311.799C321.625 312.52 321.977 313.062 322.495 313.422C323.019 313.783 323.703 313.964 324.546 313.964C325.507 313.964 326.269 313.76 326.834 313.353C327.404 312.939 327.689 312.445 327.689 311.868C327.689 311.403 327.526 311.013 327.2 310.699C326.874 310.379 326.374 310.14 325.699 309.983L323.464 309.459C322.236 309.168 321.334 308.717 320.758 308.106C320.187 307.489 319.902 306.718 319.902 305.793C319.902 305.036 320.115 304.367 320.54 303.785C320.97 303.203 321.555 302.746 322.294 302.414C323.039 302.083 323.883 301.917 324.826 301.917C326.153 301.917 327.194 302.208 327.951 302.79C328.713 303.372 329.255 304.14 329.575 305.094ZM152.412 345.814C151.563 345.814 150.791 345.654 150.099 345.334C149.406 345.008 148.856 344.54 148.449 343.929C148.042 343.312 147.838 342.567 147.838 341.694C147.838 340.926 147.989 340.303 148.292 339.826C148.594 339.343 148.999 338.964 149.505 338.691C150.012 338.417 150.57 338.214 151.181 338.08C151.798 337.94 152.418 337.83 153.041 337.748C153.856 337.643 154.516 337.565 155.022 337.512C155.535 337.454 155.907 337.358 156.14 337.224C156.378 337.09 156.498 336.858 156.498 336.526V336.456C156.498 335.595 156.262 334.926 155.791 334.448C155.325 333.971 154.618 333.732 153.669 333.732C152.686 333.732 151.915 333.948 151.356 334.378C150.797 334.809 150.404 335.269 150.177 335.758L148.222 335.059C148.571 334.245 149.037 333.61 149.619 333.156C150.207 332.697 150.847 332.376 151.539 332.196C152.238 332.01 152.924 331.917 153.599 331.917C154.03 331.917 154.525 331.969 155.084 332.074C155.648 332.173 156.192 332.379 156.716 332.694C157.246 333.008 157.685 333.482 158.034 334.117C158.383 334.751 158.558 335.601 158.558 336.666V345.5H156.498V343.684H156.393C156.253 343.975 156.021 344.287 155.695 344.618C155.369 344.95 154.935 345.232 154.394 345.465C153.853 345.698 153.192 345.814 152.412 345.814ZM152.727 343.964C153.541 343.964 154.228 343.804 154.787 343.483C155.351 343.163 155.776 342.75 156.061 342.244C156.352 341.738 156.498 341.205 156.498 340.646V338.761C156.41 338.865 156.218 338.962 155.922 339.049C155.631 339.13 155.293 339.203 154.909 339.267C154.531 339.325 154.161 339.378 153.8 339.424C153.445 339.465 153.157 339.5 152.936 339.529C152.401 339.599 151.9 339.712 151.435 339.869C150.975 340.021 150.602 340.251 150.317 340.559C150.038 340.862 149.898 341.275 149.898 341.799C149.898 342.514 150.163 343.056 150.693 343.422C151.228 343.783 151.906 343.964 152.727 343.964ZM164.378 337.434V345.5H162.318V332.091H164.309V334.186H164.483C164.797 333.505 165.275 332.958 165.915 332.545C166.555 332.126 167.381 331.917 168.394 331.917C169.302 331.917 170.096 332.103 170.777 332.475C171.458 332.842 171.988 333.401 172.366 334.151C172.744 334.896 172.933 335.839 172.933 336.98V345.5H170.873V337.12C170.873 336.066 170.6 335.246 170.053 334.658C169.506 334.064 168.755 333.767 167.8 333.767C167.143 333.767 166.555 333.91 166.037 334.195C165.525 334.48 165.12 334.896 164.824 335.443C164.527 335.991 164.378 336.654 164.378 337.434ZM181.761 345.779C180.644 345.779 179.657 345.497 178.802 344.933C177.946 344.362 177.277 343.559 176.794 342.523C176.311 341.481 176.07 340.251 176.07 338.831C176.07 337.422 176.311 336.2 176.794 335.164C177.277 334.128 177.949 333.328 178.811 332.763C179.672 332.199 180.667 331.917 181.796 331.917C182.669 331.917 183.359 332.062 183.865 332.353C184.377 332.638 184.767 332.964 185.035 333.331C185.308 333.692 185.521 333.989 185.672 334.221H185.847V327.622H187.907V345.5H185.917V343.44H185.672C185.521 343.684 185.306 343.993 185.026 344.365C184.747 344.732 184.348 345.061 183.83 345.352C183.312 345.637 182.623 345.779 181.761 345.779ZM182.041 343.929C182.867 343.929 183.565 343.713 184.136 343.283C184.706 342.846 185.14 342.244 185.436 341.476C185.733 340.702 185.882 339.808 185.882 338.796C185.882 337.795 185.736 336.919 185.445 336.168C185.154 335.411 184.724 334.824 184.153 334.405C183.583 333.98 182.879 333.767 182.041 333.767C181.168 333.767 180.44 333.991 179.858 334.44C179.282 334.882 178.849 335.484 178.558 336.247C178.272 337.003 178.13 337.853 178.13 338.796C178.13 339.75 178.275 340.617 178.566 341.397C178.863 342.171 179.3 342.788 179.876 343.248C180.458 343.702 181.179 343.929 182.041 343.929ZM208.378 335.094L206.527 335.618C206.411 335.31 206.239 335.01 206.012 334.719C205.791 334.422 205.488 334.178 205.104 333.986C204.72 333.794 204.228 333.698 203.629 333.698C202.808 333.698 202.125 333.887 201.578 334.265C201.036 334.637 200.766 335.112 200.766 335.688C200.766 336.2 200.952 336.605 201.324 336.901C201.697 337.198 202.279 337.445 203.07 337.643L205.061 338.132C206.26 338.423 207.153 338.868 207.741 339.468C208.328 340.061 208.622 340.827 208.622 341.764C208.622 342.532 208.401 343.219 207.959 343.824C207.522 344.429 206.911 344.906 206.126 345.256C205.34 345.605 204.426 345.779 203.385 345.779C202.017 345.779 200.885 345.483 199.989 344.889C199.093 344.295 198.525 343.428 198.286 342.287L200.242 341.799C200.428 342.52 200.78 343.062 201.298 343.422C201.822 343.783 202.506 343.964 203.35 343.964C204.31 343.964 205.072 343.76 205.637 343.353C206.207 342.939 206.492 342.445 206.492 341.868C206.492 341.403 206.329 341.013 206.003 340.699C205.678 340.379 205.177 340.14 204.502 339.983L202.267 339.459C201.039 339.168 200.137 338.717 199.561 338.106C198.991 337.489 198.706 336.718 198.706 335.793C198.706 335.036 198.918 334.367 199.343 333.785C199.773 333.203 200.358 332.746 201.097 332.414C201.842 332.083 202.686 331.917 203.629 331.917C204.956 331.917 205.998 332.208 206.754 332.79C207.517 333.372 208.058 334.14 208.378 335.094ZM217.555 332.091V333.837H210.606V332.091H217.555ZM212.631 328.879H214.692V341.659C214.692 342.241 214.776 342.677 214.945 342.968C215.119 343.254 215.341 343.446 215.608 343.545C215.882 343.638 216.17 343.684 216.473 343.684C216.699 343.684 216.886 343.673 217.031 343.649C217.177 343.62 217.293 343.597 217.38 343.579L217.799 345.43C217.66 345.483 217.465 345.535 217.215 345.587C216.964 345.645 216.647 345.675 216.263 345.675C215.681 345.675 215.111 345.549 214.552 345.299C213.999 345.049 213.539 344.668 213.173 344.156C212.812 343.643 212.631 342.998 212.631 342.218V328.879ZM224.6 345.814C223.75 345.814 222.979 345.654 222.286 345.334C221.594 345.008 221.044 344.54 220.637 343.929C220.229 343.312 220.025 342.567 220.025 341.694C220.025 340.926 220.177 340.303 220.479 339.826C220.782 339.343 221.187 338.964 221.693 338.691C222.199 338.417 222.758 338.214 223.369 338.08C223.986 337.94 224.606 337.83 225.228 337.748C226.043 337.643 226.704 337.565 227.21 337.512C227.722 337.454 228.095 337.358 228.327 337.224C228.566 337.09 228.685 336.858 228.685 336.526V336.456C228.685 335.595 228.45 334.926 227.978 334.448C227.513 333.971 226.805 333.732 225.857 333.732C224.873 333.732 224.102 333.948 223.544 334.378C222.985 334.809 222.592 335.269 222.365 335.758L220.41 335.059C220.759 334.245 221.224 333.61 221.806 333.156C222.394 332.697 223.034 332.376 223.727 332.196C224.425 332.01 225.112 331.917 225.787 331.917C226.218 331.917 226.712 331.969 227.271 332.074C227.836 332.173 228.38 332.379 228.904 332.694C229.433 333.008 229.872 333.482 230.222 334.117C230.571 334.751 230.745 335.601 230.745 336.666V345.5H228.685V343.684H228.581C228.441 343.975 228.208 344.287 227.882 344.618C227.556 344.95 227.123 345.232 226.581 345.465C226.04 345.698 225.38 345.814 224.6 345.814ZM224.914 343.964C225.729 343.964 226.416 343.804 226.974 343.483C227.539 343.163 227.964 342.75 228.249 342.244C228.54 341.738 228.685 341.205 228.685 340.646V338.761C228.598 338.865 228.406 338.962 228.109 339.049C227.818 339.13 227.481 339.203 227.096 339.267C226.718 339.325 226.349 339.378 225.988 339.424C225.633 339.465 225.345 339.5 225.124 339.529C224.588 339.599 224.088 339.712 223.622 339.869C223.162 340.021 222.79 340.251 222.505 340.559C222.225 340.862 222.086 341.275 222.086 341.799C222.086 342.514 222.35 343.056 222.88 343.422C223.415 343.783 224.093 343.964 224.914 343.964ZM234.785 345.5V327.622H236.845V334.221H237.02C237.171 333.989 237.381 333.692 237.648 333.331C237.922 332.964 238.312 332.638 238.818 332.353C239.33 332.062 240.023 331.917 240.896 331.917C242.025 331.917 243.02 332.199 243.881 332.763C244.743 333.328 245.415 334.128 245.898 335.164C246.381 336.2 246.622 337.422 246.622 338.831C246.622 340.251 246.381 341.481 245.898 342.523C245.415 343.559 244.746 344.362 243.89 344.933C243.035 345.497 242.048 345.779 240.931 345.779C240.069 345.779 239.38 345.637 238.862 345.352C238.344 345.061 237.945 344.732 237.666 344.365C237.387 343.993 237.171 343.684 237.02 343.44H236.775V345.5H234.785ZM236.81 338.796C236.81 339.808 236.959 340.702 237.256 341.476C237.552 342.244 237.986 342.846 238.556 343.283C239.127 343.713 239.825 343.929 240.651 343.929C241.513 343.929 242.231 343.702 242.808 343.248C243.39 342.788 243.826 342.171 244.117 341.397C244.414 340.617 244.562 339.75 244.562 338.796C244.562 337.853 244.417 337.003 244.126 336.247C243.841 335.484 243.407 334.882 242.825 334.44C242.249 333.991 241.524 333.767 240.651 333.767C239.813 333.767 239.109 333.98 238.539 334.405C237.969 334.824 237.538 335.411 237.247 336.168C236.956 336.919 236.81 337.795 236.81 338.796ZM249.774 345.5V332.091H251.834V345.5H249.774ZM250.821 329.856C250.42 329.856 250.074 329.72 249.783 329.446C249.497 329.173 249.355 328.844 249.355 328.46C249.355 328.076 249.497 327.747 249.783 327.473C250.074 327.2 250.42 327.063 250.821 327.063C251.223 327.063 251.566 327.2 251.852 327.473C252.143 327.747 252.288 328.076 252.288 328.46C252.288 328.844 252.143 329.173 251.852 329.446C251.566 329.72 251.223 329.856 250.821 329.856ZM257.668 327.622V345.5H255.607V327.622H257.668ZM261.441 345.5V332.091H263.501V345.5H261.441ZM262.489 329.856C262.087 329.856 261.741 329.72 261.45 329.446C261.165 329.173 261.022 328.844 261.022 328.46C261.022 328.076 261.165 327.747 261.45 327.473C261.741 327.2 262.087 327.063 262.489 327.063C262.89 327.063 263.234 327.2 263.519 327.473C263.81 327.747 263.955 328.076 263.955 328.46C263.955 328.844 263.81 329.173 263.519 329.446C263.234 329.72 262.89 329.856 262.489 329.856ZM273.106 332.091V333.837H266.157V332.091H273.106ZM268.182 328.879H270.243V341.659C270.243 342.241 270.327 342.677 270.496 342.968C270.67 343.254 270.892 343.446 271.159 343.545C271.433 343.638 271.721 343.684 272.024 343.684C272.251 343.684 272.437 343.673 272.582 343.649C272.728 343.62 272.844 343.597 272.931 343.579L273.35 345.43C273.211 345.483 273.016 345.535 272.766 345.587C272.515 345.645 272.198 345.675 271.814 345.675C271.232 345.675 270.662 345.549 270.103 345.299C269.55 345.049 269.09 344.668 268.724 344.156C268.363 343.643 268.182 342.998 268.182 342.218V328.879ZM277.532 350.528C277.183 350.528 276.871 350.499 276.598 350.441C276.324 350.389 276.135 350.336 276.03 350.284L276.554 348.468C277.055 348.596 277.497 348.643 277.881 348.608C278.265 348.573 278.606 348.401 278.902 348.093C279.205 347.79 279.482 347.298 279.732 346.617L280.116 345.57L275.157 332.091H277.392L281.094 342.776H281.233L284.935 332.091H287.169L281.478 347.455C281.222 348.148 280.904 348.721 280.526 349.175C280.148 349.635 279.709 349.975 279.208 350.197C278.713 350.418 278.155 350.528 277.532 350.528Z" fill="white"/>
<path fill-rule="evenodd" clip-rule="evenodd" d="M217.076 113.5C200.605 113.5 185.596 118.94 176.718 123.387C175.918 123.787 175.168 124.18 174.471 124.56C173.091 125.312 171.92 126.013 170.984 126.628L181.086 141.499L185.84 143.392C204.426 152.769 229.349 152.769 247.934 143.392L253.333 140.591L262.884 126.628C261.484 125.695 259.549 124.563 257.167 123.36C257.022 123.286 256.875 123.213 256.726 123.139C247.887 118.74 233.242 113.5 217.076 113.5ZM193.582 130.334C189.947 129.664 186.375 128.738 183.004 127.677C191.323 123.983 203.721 120.064 217.076 120.064C226.329 120.064 235.078 121.946 242.315 124.328C233.834 125.525 224.785 127.546 216.164 130.04C209.381 132.002 201.452 131.786 193.582 130.334Z" fill="#FD1640"/>
<path fill-rule="evenodd" clip-rule="evenodd" d="M251.786 148.801L250.892 149.252C230.446 159.568 203.329 159.568 182.884 149.252L182.034 148.824C151.322 182.524 119.102 245.721 217.077 244.774C314.984 243.828 282.26 181.362 251.786 148.801ZM222.551 172.578H211.318V177.83C207.667 177.821 204.157 179.142 201.531 181.513C198.905 183.883 197.369 187.116 197.249 190.527C197.129 193.938 198.435 197.259 200.889 199.785C203.343 202.311 206.754 203.845 210.397 204.06L211.318 204.087H222.551L223.057 204.129C223.704 204.238 224.29 204.557 224.712 205.029C225.134 205.501 225.365 206.097 225.365 206.712C225.365 207.327 225.134 207.923 224.712 208.395C224.29 208.868 223.704 209.186 223.057 209.296L222.551 209.338H200.084V219.841H211.318V225.092H222.551V219.841C226.202 219.849 229.711 218.528 232.338 216.158C234.964 213.788 236.5 210.554 236.62 207.143C236.739 203.732 235.434 200.412 232.98 197.885C230.525 195.359 227.115 193.826 223.472 193.61L222.551 193.584H211.318L210.812 193.542C210.165 193.432 209.579 193.114 209.157 192.641C208.735 192.169 208.504 191.573 208.504 190.958C208.504 190.343 208.735 189.747 209.157 189.275C209.579 188.803 210.165 188.484 210.812 188.374L211.318 188.332H233.785V177.83H222.551V172.578Z" fill="#FD1640"/>
<defs>
<linearGradient id="paint0_linear_3074_837" x1="6.23643" y1="65.4922" x2="6.23643" y2="362.165" gradientUnits="userSpaceOnUse">
<stop stop-color="#DC062D"/>
<stop offset="1" stop-color="#DC062D" stop-opacity="0"/>
</linearGradient>
<linearGradient id="paint1_linear_3074_837" x1="429.131" y1="65.4922" x2="429.131" y2="362.165" gradientUnits="userSpaceOnUse">
<stop stop-color="#DC062D"/>
<stop offset="1" stop-color="#DC062D" stop-opacity="0"/>
</linearGradient>
<linearGradient id="paint2_linear_3074_837" x1="217.144" y1="4" x2="217.144" y2="421.5" gradientUnits="userSpaceOnUse">
<stop stop-color="#FD1640"/>
<stop offset="1" stop-color="#FB133D"/>
</linearGradient>
</defs>
</svg>
